<svg viewBox="0 0 161.48 220.37"><path class="cls-1" d="M17.2,143.46a1.66,1.66,0,0,1-.3-.65.36.36,0,0,0-.08-.2.6.6,0,0,0-.2-.17,1.55,1.55,0,0,1-.5-.45,2.12,2.12,0,0,1-.31-.51,1.06,1.06,0,0,0-.16-.28c-.15-.19-.22-.3-.29-.4s-.11-.17-.24-.34a3,3,0,0,1-.3-.47,1.72,1.72,0,0,0-.19-.3.77.77,0,0,0-.21-.2,2.14,2.14,0,0,1-.46-.44c-.18-.26-.37-.53-.54-.81a1.6,1.6,0,0,0-.22-.26,2.55,2.55,0,0,1-.39-.5c-.11-.2-.2-.4-.29-.6l-.12-.28a3.16,3.16,0,0,1-.21-.58,2.24,2.24,0,0,0-.11-.34,3,3,0,0,1-.15-.61,2.36,2.36,0,0,0-.07-.33c0-.11-.09-.22-.14-.33s-.15-.36-.21-.56a1.82,1.82,0,0,0-.13-.3,2,2,0,0,1-.25-.6l0-.19c-.05-.26-.11-.51-.15-.76a3.29,3.29,0,0,1,0-.62c0-.12,0-.24,0-.36a2.32,2.32,0,0,1,.06-.66,1.33,1.33,0,0,0,0-.3,2.33,2.33,0,0,0-.06-.33,2.47,2.47,0,0,1-.08-.63c0-.12,0-.24,0-.36a3,3,0,0,1,0-.61,1.93,1.93,0,0,1,.18-.64,1.75,1.75,0,0,0,.1-.3,4.65,4.65,0,0,1,.14-.59,1.91,1.91,0,0,0,.1-.34,1.51,1.51,0,0,0,0-.29,2.3,2.3,0,0,1,0-.68,3.17,3.17,0,0,1,.24-.58,2.15,2.15,0,0,0,.15-.31,3.14,3.14,0,0,1,.23-.55,2,2,0,0,0,.15-.33,1.88,1.88,0,0,0,0-.24,1.61,1.61,0,0,1,.09-.76,2.71,2.71,0,0,1,.35-.53,2.79,2.79,0,0,0,.19-.28l.15-.32a5.56,5.56,0,0,1,.27-.55c.06-.09.11-.19.17-.29a3.82,3.82,0,0,1,.32-.54l.18-.31a5,5,0,0,1,.34-.51,1.54,1.54,0,0,1,.64-.45,1,1,0,0,0,.21-.11,1.3,1.3,0,0,0,.14-.25,2.13,2.13,0,0,1,.35-.58,3.92,3.92,0,0,1,.48-.39,2.27,2.27,0,0,0,.28-.21,3.28,3.28,0,0,0,.22-.26,2.54,2.54,0,0,1,.42-.47,3,3,0,0,0,.26-.24c.14-.13.29-.28.46-.41a2.22,2.22,0,0,1,.62-.28,1.63,1.63,0,0,0,.28-.11,6,6,0,0,1,.54-.3l.3-.16c.19-.11.39-.19.57-.28l.29-.13a1.7,1.7,0,0,0,.27-.19,2.59,2.59,0,0,1,.55-.34c.26-.11.54-.21.82-.31l.08,0a4.38,4.38,0,0,1,.57-.15l.36-.08a2.11,2.11,0,0,0,.37-.15,3.86,3.86,0,0,1,.54-.2,1.57,1.57,0,0,0,.35-.14,3.18,3.18,0,0,1,.56-.23l.31,1.09a1.57,1.57,0,0,0-.35.14,2.76,2.76,0,0,1-.55.22l-.38.14a2.85,2.85,0,0,1-.53.21l-.44.11a2.57,2.57,0,0,0-.44.11l-.07,0-.77.29a1.7,1.7,0,0,0-.29.2,2.82,2.82,0,0,1-.46.3l-.32.15L20,116a2.79,2.79,0,0,1-.34.18c-.16.09-.31.16-.45.25a2.36,2.36,0,0,1-.55.24.92.92,0,0,0-.29.11,3,3,0,0,0-.33.3,3.28,3.28,0,0,1-.34.31,1.94,1.94,0,0,0-.25.29,2.9,2.9,0,0,1-.34.4,2.61,2.61,0,0,1-.4.3,3,3,0,0,0-.31.25,1.08,1.08,0,0,0-.15.27,2.16,2.16,0,0,1-.3.52,1.53,1.53,0,0,1-.61.4l-.21.11c-.08.11-.17.25-.26.4s-.14.24-.22.36-.17.29-.26.45-.12.22-.19.33-.14.28-.21.43-.11.26-.18.38a3.2,3.2,0,0,1-.3.45,1.94,1.94,0,0,0-.2.3,1,1,0,0,0,0,.24,1.82,1.82,0,0,1-.07.71c-.06.14-.13.28-.2.42s-.13.27-.17.39a3.79,3.79,0,0,1-.21.49,1.22,1.22,0,0,0-.15.34,1,1,0,0,0,0,.3,2.52,2.52,0,0,1,0,.61c0,.17-.08.32-.13.47a2.34,2.34,0,0,0-.1.4,2.83,2.83,0,0,1-.17.56,1,1,0,0,0-.1.31,3.22,3.22,0,0,0,0,.43,3.54,3.54,0,0,1,0,.47,1.92,1.92,0,0,0,.06.36,2.76,2.76,0,0,1,.09.54,3.17,3.17,0,0,1-.07.57,1.08,1.08,0,0,0,0,.33c0,.17,0,.33,0,.48a1.9,1.9,0,0,0,0,.42c0,.23.08.47.13.7l.05.19a1,1,0,0,0,.14.32,3.7,3.7,0,0,1,.22.52,2.15,2.15,0,0,0,.16.41c.06.14.12.28.17.42a2.6,2.6,0,0,1,.11.51,2.51,2.51,0,0,0,.09.37,4,4,0,0,1,.15.45,2.19,2.19,0,0,0,.14.41l.13.3c.08.17.16.35.25.51a1.29,1.29,0,0,0,.23.28,3.24,3.24,0,0,1,.35.43c.16.26.33.51.5.75a.8.8,0,0,0,.19.18,1.86,1.86,0,0,1,.45.43,2.26,2.26,0,0,1,.31.48,1.54,1.54,0,0,0,.18.29,3.78,3.78,0,0,1,.29.41l.24.33a2.13,2.13,0,0,1,.31.52.89.89,0,0,0,.16.27.5.5,0,0,0,.19.17,1.75,1.75,0,0,1,.51.44,1.69,1.69,0,0,1,.3.66.39.39,0,0,0,.08.2Z"/><path class="cls-2" d="M37.07,105.88c.68.29.59.51,1.27.8s.73.19,1.42.49.67.33,1.35.62.68.32,1.36.62.73.21,1.41.51.73.2,1.41.5l1.38.58c.69.29.66.35,1.35.65s.72.24,1.4.53"/><path class="cls-3" d="M161.37,113.92a1.18,1.18,0,0,0-1.1-.52,1.17,1.17,0,0,1-.65-.15c-.42-.21-.9-.48-1.43-.79a2.28,2.28,0,0,1-.49-.46,4.17,4.17,0,0,0-.71-.67c-.43-.29-.87-.59-1.31-.94a5.93,5.93,0,0,0-.7-.43,3.34,3.34,0,0,1-.68-.45l-.56-.45a6.59,6.59,0,0,1-.69-.6c-.37-.39-.72-.82-1.06-1.25a3.36,3.36,0,0,1-.36-.71,4.86,4.86,0,0,0-.37-.76,4.94,4.94,0,0,0-.49-.64,3,3,0,0,1-.5-.67,3.9,3.9,0,0,1-.21-.57,3.72,3.72,0,0,0-.41-1,9.42,9.42,0,0,0-.84-1l-.21-.25a4.23,4.23,0,0,0-.82-.67,4.1,4.1,0,0,1-.47-.35l-.36-.33a6.44,6.44,0,0,0-.87-.75c-.15-.1-.3-.22-.44-.33a6.5,6.5,0,0,0-.9-.62,3.36,3.36,0,0,0-1-.27,2.55,2.55,0,0,1-.6-.12,3.78,3.78,0,0,1-.53-.27,3.78,3.78,0,0,0-1-.44,6,6,0,0,0-1.09-.13l-.54,0a3.16,3.16,0,0,1-.59-.14A5,5,0,0,0,137.8,97a2.92,2.92,0,0,1-.89,0l-.46-.09a3.73,3.73,0,0,1-1-.26,7.46,7.46,0,0,1-1.32-.75,2.94,2.94,0,0,1-.55-.67,5.48,5.48,0,0,0-.45-.59,6.41,6.41,0,0,1-.83-1.11c-.09-.16-.19-.32-.3-.49a3.58,3.58,0,0,1-.44-.84,2.67,2.67,0,0,1,0-.81,5.63,5.63,0,0,0,0-.71,4.72,4.72,0,0,1,.11-1.1l.06-.35c0-.17,0-.35,0-.52a3.27,3.27,0,0,1,.18-1,2.72,2.72,0,0,1,.29-.63,3.79,3.79,0,0,0,.37-.83,3.66,3.66,0,0,0,.21-.86,3.91,3.91,0,0,1,.17-.69,2.67,2.67,0,0,0,.16-.95,2,2,0,0,1,.11-.64,6.51,6.51,0,0,1,.27-.72c.07-.19.15-.39.28-.78a2.2,2.2,0,0,1,.3-.6,3.41,3.41,0,0,0,.41-.84,4.26,4.26,0,0,0,.2-.87,3.09,3.09,0,0,1,.16-.68c.13-.39.19-.58.25-.78s.11-.37.23-.74a2.52,2.52,0,0,1,.29-.63,3.45,3.45,0,0,0,.37-.82,4.93,4.93,0,0,0,.21-.87,2.93,2.93,0,0,1,.15-.68,3.92,3.92,0,0,1,.29-.65,3.84,3.84,0,0,0,.36-.81c.13-.39.18-.59.24-.79s.1-.37.22-.74a3.73,3.73,0,0,0,.19-.89,2.49,2.49,0,0,1,.14-.67,1.7,1.7,0,0,1,.3-.58,2.69,2.69,0,0,0,.44-.85,4.18,4.18,0,0,0,.2-.88,3.09,3.09,0,0,1,.16-.68,3.72,3.72,0,0,1,.28-.67,7.49,7.49,0,0,0,.33-.81l.5-1.51c.12-.37.19-.55.26-.72s.16-.39.29-.78.2-.55.27-.73.15-.38.28-.77.2-.55.27-.73l.28-.77.5-1.52a3.2,3.2,0,0,0,.2-.88,3.82,3.82,0,0,1,.16-.68,5.84,5.84,0,0,1,.28-.69,7.57,7.57,0,0,0,.32-.8,3.35,3.35,0,0,1,.28-.67,5.62,5.62,0,0,0,.34-.81,2.59,2.59,0,0,0,.14-1,1.37,1.37,0,0,1,.08-.63l.24-.76c.06-.2.11-.39.24-.76a4.92,4.92,0,0,1,.26-.58,8.81,8.81,0,0,0,.39-.94,4.06,4.06,0,0,1,.27-.61,4.69,4.69,0,0,0,.38-.91,2.52,2.52,0,0,0,0-1,2.17,2.17,0,0,1,0-.67,3.26,3.26,0,0,1,.24-.62,3.58,3.58,0,0,0,.34-.92,6.85,6.85,0,0,0,.1-.91,5.85,5.85,0,0,1,.07-.72,2.71,2.71,0,0,1,.21-.65,3.86,3.86,0,0,0,.27-.93,3,3,0,0,0-.09-1,2.08,2.08,0,0,1-.09-.66c0-.23.08-.47.12-.71a8.68,8.68,0,0,0,.14-.89,2.73,2.73,0,0,1,.2-.64,3.08,3.08,0,0,0,.28-1c0-.3,0-.6,0-.91a5.88,5.88,0,0,1,0-.73,4.74,4.74,0,0,0-.06-.93,4.14,4.14,0,0,1-.06-.7c0-.25,0-.49.06-.73a6.82,6.82,0,0,0,.07-.9,4.88,4.88,0,0,0-.09-.93,4.41,4.41,0,0,1-.08-.71,6,6,0,0,1,.07-.73,5.69,5.69,0,0,0,.08-.91c0-.31,0-.61-.07-.92s0-.47-.06-.71,0-.48,0-.71,0-.62,0-.92a3,3,0,0,1,.09-.68,3.11,3.11,0,0,0,.11-1,4.41,4.41,0,0,0-.23-.95,3,3,0,0,1-.17-.65,3.38,3.38,0,0,1,0-.71,3.61,3.61,0,0,0,0-.93,3.12,3.12,0,0,0-.34-1,2.75,2.75,0,0,1-.23-.61,2.52,2.52,0,0,1,0-.72,3.35,3.35,0,0,0,0-.95,4.62,4.62,0,0,0-.29-.93,3.47,3.47,0,0,1-.22-.64,4.41,4.41,0,0,1,0-.74,4.09,4.09,0,0,0,0-.92,2.91,2.91,0,0,0-.49-1,2.06,2.06,0,0,1-.3-.52c-.06-.24-.1-.48-.14-.71a8.1,8.1,0,0,0-.2-.91l-.16-.52a10.13,10.13,0,0,0-.35-1.06c-.08-.22-.14-.45-.2-.67a4.09,4.09,0,0,0-.32-1,6.16,6.16,0,0,0-.78-1.07L142.85,5a3.34,3.34,0,0,0-1-.79,2.8,2.8,0,0,1-.4-.27,2.23,2.23,0,0,1-.4-.41,2.57,2.57,0,0,0-.94-.77A2.57,2.57,0,0,0,139,2.67a3.14,3.14,0,0,1-.62,0l-.31-.06a8.78,8.78,0,0,0-1.34-.2q-.78-.06-1.65-.06a4,4,0,0,1-.63-.09,3,3,0,0,0-1.05-.1,12.63,12.63,0,0,0-1.68.29,2.89,2.89,0,0,0-1,.54,2.1,2.1,0,0,1-.52.34,11.46,11.46,0,0,0-1.46.76,3.28,3.28,0,0,1-.54.24,3.19,3.19,0,0,0-1,.5,7.15,7.15,0,0,0-.86.88l-.3.33a8.56,8.56,0,0,0-.68.88l-.31.45a16.24,16.24,0,0,0-.9,1.37,4.41,4.41,0,0,1-.39.49,4.33,4.33,0,0,0-.61.84,8,8,0,0,0-.35.9c-.07.21-.14.43-.23.64s-.18.37-.27.56a7.7,7.7,0,0,0-.43.92,3.41,3.41,0,0,0-.15.94,3.47,3.47,0,0,1-.1.69,3.17,3.17,0,0,1-.27.6,4.68,4.68,0,0,0-.38.9c-.07.29-.12.6-.17.91s-.07.46-.12.69a5.27,5.27,0,0,0-.11.9,5.85,5.85,0,0,1-.07.72,2.74,2.74,0,0,1-.25.58A3.09,3.09,0,0,0,120,21a3.77,3.77,0,0,0,0,.95,3.31,3.31,0,0,1,0,.7c0,.29-.06.59-.08.89s0,.48,0,.72-.07.46-.12.69a9.09,9.09,0,0,0-.15.91,5.54,5.54,0,0,1-.12.69,6.89,6.89,0,0,0-.14.91,6.46,6.46,0,0,0,0,.88,5.88,5.88,0,0,1,0,.73,6.48,6.48,0,0,0,0,.88c0,.24,0,.49,0,.74s-.06.47-.1.7a5.53,5.53,0,0,0-.12.91,5.29,5.29,0,0,0,.08.9,3.35,3.35,0,0,1,.07.71,5.85,5.85,0,0,1-.07.72,6.84,6.84,0,0,0-.09.91c0,.28,0,.57,0,.86s0,.51,0,.76a4,4,0,0,1,0,.72,5.54,5.54,0,0,0-.06.87,5.18,5.18,0,0,1,0,.72,5.29,5.29,0,0,0-.06.86c0,.41,0,.61,0,.82s0,.38,0,.76,0,.63,0,.84a6,6,0,0,1,0,.75,5.34,5.34,0,0,0,.06.87,3.84,3.84,0,0,1,.06.72,1.24,1.24,0,0,1-.13.6,2.28,2.28,0,0,0-.21,1,7.24,7.24,0,0,0,0,.85,5.4,5.4,0,0,1,0,.74,2.74,2.74,0,0,0,.14.93,2.05,2.05,0,0,1,.09.65,6.57,6.57,0,0,1,0,.75c0,.21,0,.42,0,.83s0,.63,0,.84a6.57,6.57,0,0,1,0,.75,1.41,1.41,0,0,1-.12.62,2.43,2.43,0,0,0-.18,1,2.75,2.75,0,0,0,.16,1,1.66,1.66,0,0,1,.11.63,5.36,5.36,0,0,1,0,.73,5.29,5.29,0,0,0-.06.86,2.61,2.61,0,0,1-.08.68,3.39,3.39,0,0,0-.11.91,2.69,2.69,0,0,0,.14.93,2.47,2.47,0,0,1,0,1.32,3.48,3.48,0,0,0-.12.93,3,3,0,0,0,.15.95,1.68,1.68,0,0,1,.11.64,5.39,5.39,0,0,0,.06.86,4,4,0,0,1,.05.72,7.82,7.82,0,0,0,0,.82c0,.19,0,.38,0,.76a2.18,2.18,0,0,1-.09.68,3.48,3.48,0,0,0-.11.92c0,.38,0,.58,0,.77s0,.41,0,.81V72a2.15,2.15,0,0,1-.09.67,3,3,0,0,0-.12.91,2.16,2.16,0,0,0,.23,1,1.2,1.2,0,0,1,.13.59,5.78,5.78,0,0,1,0,.73,5.29,5.29,0,0,0-.06.86,6.69,6.69,0,0,1,0,.75,7.6,7.6,0,0,0,0,.84,5.39,5.39,0,0,0,.06.86,5.84,5.84,0,0,1,0,.74c0,.4,0,.61,0,.81s0,.39,0,.78,0,.57,0,.75a7.6,7.6,0,0,0,0,.84,6.78,6.78,0,0,1,0,.76c0,.21,0,.42,0,.83a5.4,5.4,0,0,1,0,.74,7.29,7.29,0,0,0,0,.86,3,3,0,0,0,.12.92,2.59,2.59,0,0,1,.09.68,5.54,5.54,0,0,1,0,.74,5.29,5.29,0,0,0-.06.86c0,.39,0,.58,0,.77a8.28,8.28,0,0,0,0,.84c0,.5,0,1,0,1.51,0,.23,0,.47,0,.7a7.3,7.3,0,0,1,0,.81,6,6,0,0,0,0,.74,5.1,5.1,0,0,1,0,.78l0,.24c-.07.42-.13.85-.22,1.26a3.46,3.46,0,0,1-.26.66,4.49,4.49,0,0,0-.31.76,6.35,6.35,0,0,0-.13.76,4.62,4.62,0,0,1-.15.74,2.71,2.71,0,0,1-.33.58,3.41,3.41,0,0,0-.43.75,7.51,7.51,0,0,1-.36.76c-.1.2-.2.39-.29.59a4.4,4.4,0,0,0-.23.82,2.18,2.18,0,0,1-.18.65c-.1.2-.19.4-.28.6a7.85,7.85,0,0,1-.38.77,6.45,6.45,0,0,1-.47.69c-.13.19-.27.37-.39.56s-.35.48-.53.72-.25.32-.37.49-.38.47-.58.7-.26.3-.38.46a4.83,4.83,0,0,0-.44.67,3.13,3.13,0,0,1-.4.6c-.2.22-.42.43-.64.63l-.45.43a2,2,0,0,1-.47.37,3.4,3.4,0,0,0-.66.52,6.41,6.41,0,0,0-.52.57,4,4,0,0,1-.45.49c-.27.28-.39.43-.52.58a4.68,4.68,0,0,1-.44.49,7.49,7.49,0,0,0-.51.61,3.15,3.15,0,0,1-.53.6,11.23,11.23,0,0,1-1,.7l-.33.23a2,2,0,0,1-.66.22,3.3,3.3,0,0,0-.87.29,3.69,3.69,0,0,0-.7.57,2.3,2.3,0,0,1-.55.44l-.45.21c-.33.15-.66.31-1,.43s-.86.25-1.29.35l-.24.06a4.22,4.22,0,0,1-.82.08,6.32,6.32,0,0,0-.76.06,5.23,5.23,0,0,0-.76.18,3.51,3.51,0,0,1-.79.17,2.63,2.63,0,0,1-.75-.1,4.92,4.92,0,0,0-.83-.13,10.08,10.08,0,0,1-1.22-.12l-.33,0a13.84,13.84,0,0,1-1.54-.28,9.54,9.54,0,0,1-1.19-.34l-.28-.08c-.83-.3-.94,0-1.56-.28l-.76-.27-.72-.26-1.47-.55a1.17,1.17,0,0,1-.5-.33,2.34,2.34,0,0,0-.85-.54,5.89,5.89,0,0,0-.82-.25,4,4,0,0,1-.69-.2,2.64,2.64,0,0,0-1-.18,1.62,1.62,0,0,1-.62-.11,1.22,1.22,0,0,1-.51-.33,2.17,2.17,0,0,0-.85-.54,5.86,5.86,0,0,0-.81-.25,5,5,0,0,1-.7-.22,3.07,3.07,0,0,0-.93-.19,2,2,0,0,1-.63-.12,1.37,1.37,0,0,1-.52-.33,2.17,2.17,0,0,0-.85-.53,2.38,2.38,0,0,0-1-.17A1.66,1.66,0,0,1,74,113c-.35-.13-.53-.2-.7-.28l-.76-.31-.76-.27-.73-.26a2.66,2.66,0,0,1-.6-.31,3.58,3.58,0,0,0-.81-.42,2.64,2.64,0,0,0-1-.16,1.54,1.54,0,0,1-.61-.11,1,1,0,0,1-.42-.38,1,1,0,1,0-1.5,1.32,1.73,1.73,0,0,1,.28.52,7.16,7.16,0,0,1,.16.78c0,.23.08.44.19.87s.14.6.18.79.08.44.19.87a2.38,2.38,0,0,0,.64,1,1.77,1.77,0,0,1,.22.26,1.34,1.34,0,0,1-.29-.24,2.9,2.9,0,0,0-.83-.59c-.39-.17-.6-.23-.8-.3a5.2,5.2,0,0,1-.73-.26,2.62,2.62,0,0,1-.6-.35,3.73,3.73,0,0,0-.81-.46,7.92,7.92,0,0,0-.81-.29c-.18-.06-.36-.12-.71-.27a3,3,0,0,1-.64-.33,4,4,0,0,0-.8-.42l-1.5-.62a4,4,0,0,0-.85-.28,4.93,4.93,0,0,1-.7-.23,3.8,3.8,0,0,1-.66-.34,7.79,7.79,0,0,0-.79-.4,6.15,6.15,0,0,1-.69-.32,8.33,8.33,0,0,0-.78-.38,5.72,5.72,0,0,0-.84-.28,5.31,5.31,0,0,1-.7-.24,3.86,3.86,0,0,0-.9-.27,2.6,2.6,0,0,1-.67-.19l-1.5-.63-.74-.32-.75-.33a1.49,1.49,0,0,1-.54-.36,2.43,2.43,0,0,0-.84-.57,4.12,4.12,0,0,0-.87-.27,3.66,3.66,0,0,1-.7-.22,1.85,1.85,0,0,1-.47-.32A1,1,0,0,0,44,106.7a.88.88,0,0,0-.42.63,1,1,0,0,0,.42.77,1.17,1.17,0,0,1,.33.41c.14.34.22.51.3.68s.15.31.28.63a2.65,2.65,0,0,1,.17.59,4.15,4.15,0,0,0,.23.79,3.75,3.75,0,0,1,.19.6,3.73,3.73,0,0,0,.23.78.61.61,0,0,0,.07.14l-.18-.07a4.56,4.56,0,0,1-.58-.3,6,6,0,0,0-.88-.42,4.6,4.6,0,0,1-.59-.29,3.88,3.88,0,0,0-.9-.41,4.8,4.8,0,0,0-1-.13A3.5,3.5,0,0,1,41,111a9.41,9.41,0,0,0-1.05-.13l-.56-.06c-.22,0-.43-.09-.64-.14a5,5,0,0,0-1-.18,8.17,8.17,0,0,0-1,0,4.46,4.46,0,0,1-.63.05h-.52a10.28,10.28,0,0,0-1.11,0h-.63a8.26,8.26,0,0,0-1,.06,3.14,3.14,0,0,0-1,.36,2.54,2.54,0,0,1-.58.25,3.29,3.29,0,0,1-.65,0,3.44,3.44,0,0,0-1,.1l-.48.13c-.36.1-.73.2-1.09.33s-.63.28-.94.43-.36.19-.54.27a10.28,10.28,0,0,0-.93.49l-.5.28a5.59,5.59,0,0,1-.61.26,4.65,4.65,0,0,0-.88.41,10.73,10.73,0,0,0-.91.64l-.42.31a5.18,5.18,0,0,0-.73.66,4,4,0,0,1-.47.45,5.55,5.55,0,0,0-.67.71,5,5,0,0,1-.43.49c-.15.14-.32.27-.48.4a9.19,9.19,0,0,0-.74.66,2.72,2.72,0,0,1-.51.39,3.8,3.8,0,0,0-.77.65,3.34,3.34,0,0,0-.46.9,2.85,2.85,0,0,1-.28.58c-.31.44-.62.88-.9,1.34l-.31.48a8.2,8.2,0,0,0-.55.89,3.9,3.9,0,0,1-.36.54,4.74,4.74,0,0,0-.52.84,2.68,2.68,0,0,0-.18,1,2.71,2.71,0,0,1-.09.62,4.47,4.47,0,0,1-.27.59,4.87,4.87,0,0,0-.38.9c-.09.33-.14.66-.2,1s-.06.4-.1.59a3.35,3.35,0,0,1-.2.61,4.11,4.11,0,0,0-.27,1,4.49,4.49,0,0,0,0,1,4.86,4.86,0,0,1,0,.66,3.19,3.19,0,0,1-.14.62,3.48,3.48,0,0,0-.19,1c0,.39,0,.79.06,1.19l0,.44a4.11,4.11,0,0,0,.21,1,4.61,4.61,0,0,1,.16.64,2.85,2.85,0,0,1,0,.64,3.48,3.48,0,0,0,0,1c.09.41.15.62.21.82a6.43,6.43,0,0,1,.19.73,2.18,2.18,0,0,0,.38.92,1.44,1.44,0,0,1,.24.58,5,5,0,0,1,.1.73,7.56,7.56,0,0,0,.12.85c.09.41.14.61.2.81a5.31,5.31,0,0,1,.18.74,2.26,2.26,0,0,1,.06.68,3.34,3.34,0,0,0,.07.92,2.66,2.66,0,0,0,.33.9,1.81,1.81,0,0,1,.22.62,2.4,2.4,0,0,1,.06.7,3.86,3.86,0,0,0,.08.91,4.91,4.91,0,0,1,.1.74,5.81,5.81,0,0,0,.11.86,3.35,3.35,0,0,0,.26.73,2.21,2.21,0,0,1,.2.66,1.56,1.56,0,0,1-.21.59,2.57,2.57,0,0,0-.29.79A7.5,7.5,0,0,1,15,156a3.08,3.08,0,0,0-.12.83,1.72,1.72,0,0,1-.11.62,3,3,0,0,1-.53.63,6.17,6.17,0,0,0-.43.46,2.42,2.42,0,0,1-.59.48c-.18.13-.36.25-.53.39a8,8,0,0,1-1.11.82,5,5,0,0,0-.45.29,4.25,4.25,0,0,1-.76.44,5.05,5.05,0,0,0-.59.26,3,3,0,0,1-.74.3,3.45,3.45,0,0,1-.57.05.92.92,0,0,0-.65,0,.63.63,0,0,1-.23,0v1H8a3.41,3.41,0,0,0,.15.51,3.65,3.65,0,0,1,.14.5,10.33,10.33,0,0,0,.35,1.6c.05.17.09.35.13.52a4.8,4.8,0,0,0,.33,1.06c.08.16.14.33.21.5a5.6,5.6,0,0,0,.49,1,4.64,4.64,0,0,0,.75.78,5.49,5.49,0,0,1,.43.4l.15.16a8.72,8.72,0,0,0,1,1l.37.33a7.34,7.34,0,0,0,.9.73l.12.08a13.92,13.92,0,0,0,1.31.75,3.37,3.37,0,0,0,1,.27,4,4,0,0,1,.6.12,5.38,5.38,0,0,1,.55.24,4.74,4.74,0,0,0,1,.37,3.33,3.33,0,0,0,1,0,2.68,2.68,0,0,1,.61-.05l.49.05a6.79,6.79,0,0,0,1.12.08,13.6,13.6,0,0,0,1.62-.18,14.16,14.16,0,0,0,1.58-.37A2.51,2.51,0,0,1,25,173a2.93,2.93,0,0,0,1-.17c.37-.14.56-.23.74-.31a4.66,4.66,0,0,1,.71-.3,3.78,3.78,0,0,1,.7-.19,5.57,5.57,0,0,0,.83-.24,6.45,6.45,0,0,0,.78-.33,7.14,7.14,0,0,1,.68-.29,3.14,3.14,0,0,0,.82-.42,2.09,2.09,0,0,1,.59-.31,5.19,5.19,0,0,1,.7-.2,5.55,5.55,0,0,0,.83-.23,7.26,7.26,0,0,0,.78-.33,6.14,6.14,0,0,1,.68-.29c.35-.12.53-.17.71-.22s.4-.11.79-.25l.73-.28.74-.27a2,2,0,0,1,.65-.14,3.13,3.13,0,0,0,.91-.2,2.19,2.19,0,0,0,.86-.54,1.28,1.28,0,0,1,.51-.32,1.41,1.41,0,0,1,.62-.1,2.53,2.53,0,0,0,1-.16,3,3,0,0,0,.83-.43,2,2,0,0,1,.59-.3,2.19,2.19,0,0,1,.64-.14,2.67,2.67,0,0,0,.92-.18l.75-.28.74-.27,1.49-.53a7.84,7.84,0,0,0,.77-.31c.18-.07.35-.15.71-.28l.74-.25.76-.27a3.78,3.78,0,0,1,.7-.19,5.93,5.93,0,0,0,.83-.24l.76-.3.72-.27a4.85,4.85,0,0,0,.8-.37,3.27,3.27,0,0,1,.64-.3,3.77,3.77,0,0,0,.8-.38,3.43,3.43,0,0,1,.65-.3,5.19,5.19,0,0,1,.7-.2,5.25,5.25,0,0,0,.83-.23c.36-.13.55-.19.73-.24s.4-.12.79-.26a3.4,3.4,0,0,0,.83-.42,2.11,2.11,0,0,1,.61-.31,6.26,6.26,0,0,1,1.51-.34,2.34,2.34,0,0,1,.83.13,6,6,0,0,0,.68.15,4.18,4.18,0,0,0,.71,0,2.33,2.33,0,0,1,.82.08,1.77,1.77,0,0,1,.56.47,3.53,3.53,0,0,0,.6.55l.33.22a4,4,0,0,1,.86.65,4.28,4.28,0,0,0,.54.48,2.12,2.12,0,0,1,.58.58,5.26,5.26,0,0,1,.4,1.16l.08.3a4,4,0,0,1,.07,1c0,.17,0,.33,0,.5a4.26,4.26,0,0,1,0,.7,5.83,5.83,0,0,0,0,.83,3,3,0,0,0,.16.9,1.77,1.77,0,0,1,.11.62l0,1.53a2.15,2.15,0,0,1-.06.64,2.83,2.83,0,0,0-.09.9l0,1.53a2.23,2.23,0,0,0,.22,1,1.37,1.37,0,0,1,.13.57,2.22,2.22,0,0,1-.06.65,3.21,3.21,0,0,0-.08.89,4.26,4.26,0,0,1,0,.7,3.81,3.81,0,0,0,0,.84c0,.4,0,.59,0,.79s0,.37,0,.75a2.65,2.65,0,0,0,.17.91,1.77,1.77,0,0,1,.11.62c0,.4,0,.6.06.8s0,.37,0,.74a2.74,2.74,0,0,1,0,.65,3.21,3.21,0,0,0-.08.89c0,.39,0,.59,0,.79s0,.37,0,.74,0,.54,0,.72a6.16,6.16,0,0,0,0,.82c0,.38,0,.57,0,.75s0,.4,0,.79,0,.57,0,.76,0,.39,0,.79,0,.55,0,.73,0,.41,0,.82a2.7,2.7,0,0,0,.19.94,1.69,1.69,0,0,1,.14.64,8.71,8.71,0,0,0,.21,1.09c0,.16.09.32.12.49l.09.45a11.57,11.57,0,0,0,.27,1.13c.16.51.33,1,.53,1.52a6.21,6.21,0,0,1,.2.61,5.5,5.5,0,0,0,.32.94,6.24,6.24,0,0,0,.54.83,4.4,4.4,0,0,1,.36.52,3,3,0,0,1,.24.6,3.42,3.42,0,0,0,.42.92,5,5,0,0,0,.68.76,6.17,6.17,0,0,1,.43.46l.36.45a6.73,6.73,0,0,0,.68.82,3.82,3.82,0,0,0,.87.59,3.51,3.51,0,0,1,.52.33,5.48,5.48,0,0,1,.44.4,4.56,4.56,0,0,0,.82.68,4.94,4.94,0,0,0,1,.43c.17.06.34.11.5.18s.34.16.51.25a3.58,3.58,0,0,0,1,.44,3,3,0,0,0,1.13-.06,2.8,2.8,0,0,1,.57-.08,1.2,1.2,0,0,1,.59.13,2.23,2.23,0,0,0,1,.21,2.27,2.27,0,0,0,1-.21,1.3,1.3,0,0,1,.59-.12,1.1,1.1,0,0,1,.56.13,2,2,0,0,0,1,.25,4.19,4.19,0,0,0,.87-.08,3.51,3.51,0,0,1,.7-.06,3.4,3.4,0,0,1,.69.06,4.35,4.35,0,0,0,.87.07,2.29,2.29,0,0,0,1-.2,1.17,1.17,0,0,1,.59-.13,1.16,1.16,0,0,1,.58.13,2.29,2.29,0,0,0,1,.2,2,2,0,0,0,1-.24,1.07,1.07,0,0,1,.56-.14,8,8,0,0,0,.82,0c.19,0,.37,0,.75,0a1,1,0,0,1,.57.14,2,2,0,0,0,1,.24c.41,0,.61,0,.81,0l.76,0a3,3,0,0,0,.91-.12,2.49,2.49,0,0,1,.66-.08,3.72,3.72,0,0,1,.71.06,5,5,0,0,0,.86.07,5.14,5.14,0,0,0,.85-.06,4,4,0,0,1,.72-.05,4.19,4.19,0,0,0,.87-.08,3.51,3.51,0,0,1,.7-.06,1,1,0,0,1,.55.15,2.07,2.07,0,0,0,1,.26l.8,0h.77a2.45,2.45,0,0,0,1-.17,1.41,1.41,0,0,1,.61-.11,5.14,5.14,0,0,0,.85-.06,5.59,5.59,0,0,1,.72,0h1.58l.76,0c.2,0,.4,0,.81,0a1,1,0,0,1,.56.14,2.06,2.06,0,0,0,1,.24,4.22,4.22,0,0,0,.88-.08,3.23,3.23,0,0,1,.69-.07,2.41,2.41,0,0,0,1-.18,1.4,1.4,0,0,1,.61-.12,1.28,1.28,0,0,1,.58.13,2.12,2.12,0,0,0,1,.22,2.61,2.61,0,0,0,.94-.16,1.69,1.69,0,0,1,.63-.1l.75,0c.2,0,.41,0,.82,0a4.19,4.19,0,0,0,.87-.08,3.51,3.51,0,0,1,.7-.06,1.69,1.69,0,0,1,.63.1,2.61,2.61,0,0,0,.94.16,3.46,3.46,0,0,0,.91-.11,2.16,2.16,0,0,1,.67-.08,2.13,2.13,0,0,1,.66.08,3.52,3.52,0,0,0,.91.11h1.58l.81,0h2.34c.41,0,.61,0,.81,0a6.78,6.78,0,0,1,.76,0,4.22,4.22,0,0,0,.88-.08,3.43,3.43,0,0,1,.7-.07,1,1,0,0,1,.57.15,2,2,0,0,0,1,.25,4,4,0,0,0,.9-.1,2.61,2.61,0,0,1,.68-.08h.41a3,3,0,0,0,1.28-.21l.34-.11v-.75a7.32,7.32,0,0,0,0-1,3.9,3.9,0,0,0-.26-1c-.07-.19-.14-.37-.19-.56a3.82,3.82,0,0,1,0-.61,2.94,2.94,0,0,0-.12-1l-.14-.44a8,8,0,0,0-.4-1.09,2.85,2.85,0,0,0-.67-.81,2.58,2.58,0,0,1-.4-.43l-.09-.15a12,12,0,0,0-.81-1.15,3.11,3.11,0,0,1-.3-.52,2.75,2.75,0,0,0-.56-.87A4.14,4.14,0,0,0,141,197a4.46,4.46,0,0,1-.52-.31,6.81,6.81,0,0,0-.93-.57l-.43-.25c-.38-.22-.78-.4-1.18-.59l-.25-.11a2.19,2.19,0,0,1-.47-.35,2.73,2.73,0,0,0-.88-.57,11.11,11.11,0,0,0-1.32-.35l-.24-.06a6.8,6.8,0,0,0-1-.13,5.87,5.87,0,0,1-.59,0,4.47,4.47,0,0,0-1,0,4.36,4.36,0,0,1-.62,0,10.65,10.65,0,0,0-1.13,0l-.45,0a2.26,2.26,0,0,1-.6-.08,3.29,3.29,0,0,0-1-.08,4.75,4.75,0,0,0-.91.2,5.07,5.07,0,0,1-.75.15l-.81.1-.87.11c-.43,0-.65.09-.86.13s-.41.07-.83.12a6.13,6.13,0,0,0-.89.17c-.2,0-.39.09-.79.14a7.21,7.21,0,0,1-.82.08c-.22,0-.44,0-.88.09a2.6,2.6,0,0,0-.82.24c-.06,0-.16.07-.14.08l0,0a2.49,2.49,0,0,0,.63-.45l.52-.5.53-.51a6.8,6.8,0,0,1,.52-.5c.14-.12.27-.25.54-.51a1.09,1.09,0,0,1,.46-.31,2.13,2.13,0,0,0,.78-.53,2.26,2.26,0,0,1,.42-.29,1,1,0,0,0,.5-1.4.92.92,0,0,0-1.37-.44,1.35,1.35,0,0,1-.52.15,7.32,7.32,0,0,0-.82,0,5.41,5.41,0,0,1-.71,0,1.79,1.79,0,0,1-.61-.1,2.81,2.81,0,0,0-.91-.14,5.08,5.08,0,0,0-.82.05,6,6,0,0,1-.71,0,6.09,6.09,0,0,1-.72,0,7.73,7.73,0,0,0-.81,0,2.15,2.15,0,0,0-1,.2,1.24,1.24,0,0,1-.57.12,1.47,1.47,0,0,1-.59-.11,2.34,2.34,0,0,0-.94-.18c-.4,0-.59,0-.79,0s-.37,0-.75,0a3.34,3.34,0,0,0-.89.11,2,2,0,0,1-.64.09,1.14,1.14,0,0,1-.57-.13,2.15,2.15,0,0,0-1-.2,2.37,2.37,0,0,0-.94.17,1.47,1.47,0,0,1-.59.11,1.92,1.92,0,0,1-.63-.1,2.88,2.88,0,0,0-.91-.13,2.23,2.23,0,0,0-1,.2,1.26,1.26,0,0,1-.58.12,3.17,3.17,0,0,1-.67-.07,3.81,3.81,0,0,0-.87-.09h-.22a1,1,0,0,0,.26-.21l1.13-1.11a3.35,3.35,0,0,0,.56-.73,2.46,2.46,0,0,1,.41-.54,2,2,0,0,1,.6-.32,1.28,1.28,0,0,0,.83-.63.9.9,0,0,0,0-.75c-.38-.9-1.18-.64-1.57-.52a2,2,0,0,1-.63.14,2.17,2.17,0,0,0-1,.22,1.34,1.34,0,0,1-.6.13,2.08,2.08,0,0,1-.66-.09,3.11,3.11,0,0,0-.94-.13l-.77,0-.82,0a5.59,5.59,0,0,0-.86.05,5.84,5.84,0,0,1-.74,0,2.8,2.8,0,0,1-.69-.07,3.62,3.62,0,0,0-.91-.1H93.83a2.78,2.78,0,0,0-1,.15,1.77,1.77,0,0,1-.65.1,2.64,2.64,0,0,1-.69-.08,3.55,3.55,0,0,0-.92-.11l-.56,0a5.34,5.34,0,0,1-.9,0l-.65-.06a3.5,3.5,0,0,1-.83-.1,7.28,7.28,0,0,1-1.1-.45l-.26-.13a1.55,1.55,0,0,1-.48-.43,3.13,3.13,0,0,0-.62-.58,4.71,4.71,0,0,0-.63-.33,3,3,0,0,1-.64-.36,6,6,0,0,1-.68-.74l-.29-.35a4,4,0,0,1-.44-.7c-.1-.18-.2-.36-.31-.52s-.21-.32-.32-.47a4.51,4.51,0,0,1-.47-.73,5.79,5.79,0,0,1-.28-.89c0-.16-.08-.32-.13-.49a2.67,2.67,0,0,0-.39-.75,1.89,1.89,0,0,1-.29-.59,10.84,10.84,0,0,1-.09-1.47,1.53,1.53,0,0,1,.11-.6,2.55,2.55,0,0,0,.16-.93v-1.53a3.81,3.81,0,0,0-.09-.87,3.06,3.06,0,0,1-.07-.66,3.17,3.17,0,0,1,.07-.67,3.3,3.3,0,0,0,.09-.87c0-.37,0-.55,0-.74s0-.4,0-.79a2.07,2.07,0,0,0-.22-1,1.08,1.08,0,0,1-.13-.56v-1.53a1.26,1.26,0,0,1,.12-.58,2.35,2.35,0,0,0,.18-1c0-.39,0-.59,0-.78s0-.38,0-.76,0-.6,0-.8a6.49,6.49,0,0,1,0-.74v-1.54a7.38,7.38,0,0,0,0-.83,6.09,6.09,0,0,1,0-.72c0-.52,0-1.05,0-1.57,0-.2,0-.39,0-.59s0-.66,0-1a3.88,3.88,0,0,0-.23-.92,6.29,6.29,0,0,1-.17-.62c0-.21,0-.42-.05-.64a5.64,5.64,0,0,0-.11-.92c-.07-.38-.17-.74-.27-1.11l-.11-.42a2.58,2.58,0,0,1-.06-.64,4,4,0,0,0-.13-.95,5.86,5.86,0,0,0-.39-.89c-.09-.19-.19-.38-.26-.57a3.32,3.32,0,0,1-.16-.62,3.7,3.7,0,0,0-.27-.94,2.49,2.49,0,0,0-.67-.79,2.3,2.3,0,0,1-.41-.44,2.8,2.8,0,0,1-.22-.58,3.18,3.18,0,0,0-.39-.92,9.58,9.58,0,0,0-.7-.85l-.33-.38c-.13-.16-.24-.33-.36-.51a5,5,0,0,0-.61-.8,4.2,4.2,0,0,0-.83-.59c-.18-.11-.35-.21-.51-.33a5.28,5.28,0,0,0-.89-.56l-.48-.28a11.61,11.61,0,0,0-1.16-.61l-.25-.13a9.88,9.88,0,0,0-1-.39l-.46-.16a3.65,3.65,0,0,1-.53-.25,4.74,4.74,0,0,0-.94-.39l-.54-.15a5.87,5.87,0,0,0-1-.26,3.18,3.18,0,0,0-1,.05,2.35,2.35,0,0,1-.63.06,4.17,4.17,0,0,1-.59-.08,5.21,5.21,0,0,0-1-.1,4.83,4.83,0,0,1-.63,0,4.26,4.26,0,0,0-1.09,0c-.53.15-.73.21-1,.31l-.62.21a2.12,2.12,0,0,0-.93.58,1,1,0,0,1-.52.34,1.32,1.32,0,0,1-.65.07,2.22,2.22,0,0,0-1,.11,3.23,3.23,0,0,0-.88.43,2.05,2.05,0,0,1-.63.3,5.2,5.2,0,0,1-.77.21,7.78,7.78,0,0,0-.85.23,2.16,2.16,0,0,1-.7.12,2.88,2.88,0,0,0-1,.16,2.58,2.58,0,0,0-.91.5,1.53,1.53,0,0,1-.59.33,3.06,3.06,0,0,1-.85.18l-.66.09c-.33-.06-.5-.22-.64-.63a1.82,1.82,0,0,1,0-1.27,1,1,0,0,1,.87-.68l.14,0a5,5,0,0,0,1-.39l.49-.22a1.88,1.88,0,0,1,.62-.16,2.59,2.59,0,0,0,.93-.23c.38-.17.57-.27.75-.36a7.47,7.47,0,0,1,.68-.33,2.35,2.35,0,0,0,.81-.55,1.41,1.41,0,0,1,.51-.35,3.79,3.79,0,0,1,.68-.24,4,4,0,0,0,.83-.28,4.57,4.57,0,0,0,.78-.42,3.13,3.13,0,0,1,.62-.34,6.51,6.51,0,0,0,.76-.38,7,7,0,0,1,.67-.33,1.06,1.06,0,0,1,.61-.12,2.82,2.82,0,0,0,.87-.1,4.64,4.64,0,0,0,.76-.1,3.33,3.33,0,0,1,1.49,0c.25,0,.5.09.75.11l.59,0,1,.07a5.9,5.9,0,0,0,.59.06c.33,0,.65.06,1,.12a7.37,7.37,0,0,1,.84.21l.67.18c.53.11,1,.23,1.52.37a5.81,5.81,0,0,1,.78.32c.21.1.43.2.65.28a4,4,0,0,0,.86.17,2.14,2.14,0,0,1,.68.15c.48.21,1,.43,1.4.67a4.45,4.45,0,0,1,.69.5c.18.15.37.3.56.43a7.19,7.19,0,0,0,.67.37,3.67,3.67,0,0,1,.68.39l.38.29c.28.23.57.45.83.7a2.4,2.4,0,0,1,.41.61,4.6,4.6,0,0,0,.46.69c.14.16.29.32.44.47a5.43,5.43,0,0,1,.59.68,14.37,14.37,0,0,1,.85,1.29c.26.44.5.9.73,1.36l.2.42a8.81,8.81,0,0,1,.47,1c.1.24.23.46.35.69a4.34,4.34,0,0,1,.35.72,2.25,2.25,0,0,1,0,.67,3.28,3.28,0,0,0,.07.92c.07.24.15.47.24.71a6.46,6.46,0,0,1,.25.78,7.58,7.58,0,0,0,.24.77,3.86,3.86,0,0,1,.23.73,4.9,4.9,0,0,1,0,.77,5.49,5.49,0,0,0,0,.81q0,.35.12.69c0,.29.1.57.13.86s0,.42.07.63.07.63.1.94a4.36,4.36,0,0,1,0,.72,5,5,0,0,0-.06.85,2.45,2.45,0,0,0,.15.9,1.8,1.8,0,0,1,.1.62,1.47,1.47,0,0,1-.11.59,2.5,2.5,0,0,0-.17.93c0,.39,0,.59,0,.78s0,.37,0,.75,0,.59,0,.78,0,.38,0,.75a7,7,0,0,0,0,.84,3.59,3.59,0,0,1,0,.69c0,.4,0,.6,0,.8a6.41,6.41,0,0,1,0,.73,2.65,2.65,0,0,1-.07.68,4,4,0,0,0-.08.86,6.63,6.63,0,0,0,0,.82,5.53,5.53,0,0,1,0,.71c0,.38,0,.56,0,.75s0,.39,0,.78a3.4,3.4,0,0,1-.06.69,5.1,5.1,0,0,0-.06.84c0,.4,0,.6,0,.8s0,.37,0,.74a2.19,2.19,0,0,0,.2,1,1.4,1.4,0,0,1,.12.58,5.78,5.78,0,0,1,0,.73c0,.2,0,.41,0,.81a1.66,1.66,0,0,1-.23.64,1.24,1.24,0,0,0-.21,1,.89.89,0,0,0,.55.5c.89.33,1.27-.36,1.47-.74a2.58,2.58,0,0,1,.37-.54,4.07,4.07,0,0,0,.62-.67,3.26,3.26,0,0,1,.48-.53,5.85,5.85,0,0,1,.59-.49,8.48,8.48,0,0,0,.67-.55,2.15,2.15,0,0,1,.57-.41,3.68,3.68,0,0,0,.77-.54,2.86,2.86,0,0,0,.61-.79,1.51,1.51,0,0,1,.4-.52c.29-.27.44-.39.59-.52s.33-.27.64-.55l.6-.53.63-.55a3.84,3.84,0,0,0,.61-.69,2.76,2.76,0,0,1,.47-.53,5,5,0,0,1,.59-.47,6.78,6.78,0,0,0,.69-.56,1.66,1.66,0,0,1,.56-.35,2.66,2.66,0,0,0,.83-.54,5.55,5.55,0,0,0,.62-.64,5.16,5.16,0,0,1,.51-.55,3.59,3.59,0,0,0,.62-.7,3.15,3.15,0,0,1,.47-.54,2.24,2.24,0,0,1,.58-.39,3.06,3.06,0,0,0,.8-.54,2.19,2.19,0,0,0,.29-.34,2,2,0,0,0,0,.36c0,.4,0,.59,0,.79s0,.41,0,.82a2.53,2.53,0,0,0,.18,1,1.48,1.48,0,0,1,.11.63,3.76,3.76,0,0,1-.06.72,4.34,4.34,0,0,0-.08.89,1.5,1.5,0,0,1-.2.63,1.23,1.23,0,0,0-.16,1,1,1,0,0,0,.56.53,1,1,0,0,0,.77,0,1.24,1.24,0,0,0,.6-.82,1.91,1.91,0,0,1,.29-.57c.24-.27.38-.39.51-.52a5.47,5.47,0,0,0,.6-.6,5.88,5.88,0,0,1,.51-.54,7.67,7.67,0,0,0,.56-.6,2.39,2.39,0,0,0,.5-.84,1.25,1.25,0,0,1,.31-.53,1.38,1.38,0,0,1,.49-.38,2.43,2.43,0,0,0,.78-.61,2.13,2.13,0,0,0,.48-.92,1.1,1.1,0,0,1,.26-.52,4.2,4.2,0,0,1,.51-.49,4.19,4.19,0,0,0,.62-.61,8.09,8.09,0,0,0,.52-.63c.12-.15.23-.3.48-.59a2.58,2.58,0,0,1,.5-.45,3.56,3.56,0,0,0,.67-.61,4.2,4.2,0,0,1,.51-.52,7.28,7.28,0,0,0,.59-.61,3.39,3.39,0,0,0,.51-.73,3.41,3.41,0,0,1,.4-.56,6.41,6.41,0,0,0,.52-.69,3.59,3.59,0,0,1,.43-.58,6.28,6.28,0,0,0,.52-.7,3.42,3.42,0,0,1,.43-.58,1.2,1.2,0,0,1,.48-.36,2.12,2.12,0,0,0,.77-.57h0a4.23,4.23,0,0,0,.1.93,3.06,3.06,0,0,1,.07.73,3.09,3.09,0,0,1-.07.74,4.57,4.57,0,0,0-.08.93,4.27,4.27,0,0,1-.06.76,4.6,4.6,0,0,0-.07.91,2.47,2.47,0,0,0,.2,1,1.39,1.39,0,0,1,.14.65,1.44,1.44,0,0,1-.22.64,1.21,1.21,0,0,0-.17,1,1,1,0,0,0,.57.54.82.82,0,0,0,.78,0,1.12,1.12,0,0,0,.46-.94,1.88,1.88,0,0,1,.16-.65l.73-1.36c.18-.31.28-.46.38-.61a4.76,4.76,0,0,0,.45-.71,5,5,0,0,1,.38-.61,5.77,5.77,0,0,0,.43-.71,4.4,4.4,0,0,0,.35-.81,4.12,4.12,0,0,1,.27-.63,5.57,5.57,0,0,0,.36-.78,3.77,3.77,0,0,1,.29-.65,3.22,3.22,0,0,1,.38-.57,3.64,3.64,0,0,0,.48-.72,3,3,0,0,0,.33-.85,2.53,2.53,0,0,1,.24-.62c.19-.34.28-.52.37-.7l.36-.68a5.1,5.1,0,0,1,.38-.6,4.84,4.84,0,0,0,.46-.72,2.88,2.88,0,0,1,.38-.57,3.67,3.67,0,0,0,.5-.73,4,4,0,0,1,.38-.6,4.84,4.84,0,0,0,.46-.72c.2-.36.28-.54.37-.72s.16-.34.34-.68a2,2,0,0,0,.27-1,1.12,1.12,0,0,1,.15-.56,1.28,1.28,0,0,1,.39-.45,2.26,2.26,0,0,0,.64-.76c.18-.34.28-.5.38-.67s.2-.34.39-.69a2.67,2.67,0,0,0,.32-.91,1.54,1.54,0,0,1,.2-.6,2.41,2.41,0,0,1,.39-.53,2.79,2.79,0,0,0,.56-.75,2.22,2.22,0,0,0,.29-.94,1.49,1.49,0,0,1,.18-.59,1.73,1.73,0,0,1,.46-.41,2.57,2.57,0,0,0,.69-.63,3.08,3.08,0,0,0,.35-.83,1.91,1.91,0,0,1,.24-.59c.31-.38.66-.74,1-1.11l.26-.27c.26-.27.52-.55.8-.79s.78-.64,1.18-.93a6.83,6.83,0,0,1,.82-.49l.48-.26a8.67,8.67,0,0,1,1-.47l.38-.17a12.17,12.17,0,0,1,1.14-.44l.25-.08a7.32,7.32,0,0,1,.92-.24l.52-.11.48-.13a7.45,7.45,0,0,1,1-.22,5,5,0,0,0,.74-.19,3,3,0,0,1,.72-.16,1.43,1.43,0,0,1,.21.06,1.48,1.48,0,0,0,.56.14,1.5,1.5,0,0,1,.49.07,2.41,2.41,0,0,0,.77.11,2.82,2.82,0,0,0,.76-.1,1.52,1.52,0,0,1,.5-.07,4.92,4.92,0,0,0,1-.15,5.78,5.78,0,0,1,.57-.12,11.31,11.31,0,0,0,1.62-.11,4.64,4.64,0,0,0,1-.39,4.83,4.83,0,0,1,.52-.23,11.34,11.34,0,0,0,1.48-.65,5.48,5.48,0,0,1,.56-.23,3.8,3.8,0,0,0,.94-.44c.12-.09.26-.17.39-.26a7.63,7.63,0,0,0,.95-.69,3.79,3.79,0,0,0,.65-.81c.12-.17.23-.34.36-.49l.3-.33a8.39,8.39,0,0,0,.76-.9,5,5,0,0,0,.49-1c.08-.17.15-.35.24-.51l.24-.43a8,8,0,0,0,.51-1,12.89,12.89,0,0,0,.49-1.55,3,3,0,0,0,0-1,3.11,3.11,0,0,1,0-.61,3.06,3.06,0,0,1,.14-.58,3.69,3.69,0,0,0,.19-1v-.18Z"/><path class="cls-3" d="M67,170.8a1.24,1.24,0,0,0-.75-.77,1.49,1.49,0,0,0-1.93.59,1.49,1.49,0,0,1-.28.32,2.92,2.92,0,0,0-.76.79,1.09,1.09,0,0,1-.32.33l-1.24.92a6.21,6.21,0,0,1-.59.4c-.17.11-.35.22-.68.47a.94.94,0,0,1-.4.18,2.56,2.56,0,0,0-1,.48c-.34.25-.5.38-.67.52a6.25,6.25,0,0,1-.54.44l-1.25.91a3,3,0,0,0-.73.72,1.76,1.76,0,0,1-.39.37,5,5,0,0,0-.7.61,3.94,3.94,0,0,1-.47.41c-.33.23-.48.35-.64.48l-.6.45a7,7,0,0,1-.59.39c-.18.12-.35.23-.69.48a2.53,2.53,0,0,1-.53.31,4.63,4.63,0,0,0-.81.49,3.28,3.28,0,0,0-.73.7,1.85,1.85,0,0,1-.4.37,4.08,4.08,0,0,1-.55.35A5.23,5.23,0,0,0,48,183a3.68,3.68,0,0,1-.56.35,6.38,6.38,0,0,0-.75.48,4.09,4.09,0,0,0-.71.63,3.94,3.94,0,0,1-.47.41.83.83,0,0,1-.4.17,2.64,2.64,0,0,0-1.05.48,3,3,0,0,0-.7.72.48.48,0,0,1-.28.22,2,2,0,0,1-.4.13,1.41,1.41,0,0,0-1.18,1.79,1.3,1.3,0,0,0,1.62,1.15.67.67,0,0,1,.35,0,3.11,3.11,0,0,1,.61.27,5.74,5.74,0,0,0,.6.29l-.37.27-.58.4a3.43,3.43,0,0,0-.77.62,2.41,2.41,0,0,1-.45.36A2.16,2.16,0,0,1,42,192a3.53,3.53,0,0,0-.89.43,1.55,1.55,0,0,1-.49.22,3.45,3.45,0,0,0-.94.43,2.33,2.33,0,0,0-.84.87.66.66,0,0,1-.27.28c-.35.22-.52.34-.68.46l-.61.41a1.24,1.24,0,0,1-.45.18,2.89,2.89,0,0,0-1,.42,7.26,7.26,0,0,0-.71.5,5.06,5.06,0,0,1-.56.4l-1.31.84a2.09,2.09,0,0,1-.53.26,4.17,4.17,0,0,0-.88.43,3.12,3.12,0,0,0-.82.74,1.06,1.06,0,0,1-.36.33.62.62,0,0,1-.33.07,1.31,1.31,0,0,0-1.35,1.47,1.29,1.29,0,0,0,.46,1,1.36,1.36,0,0,0,1.16.19,1.21,1.21,0,0,1,.29,0,2.48,2.48,0,0,1,.51.24,3.91,3.91,0,0,0,.62.31l-.12.1a6.71,6.71,0,0,0-.71.7,5.91,5.91,0,0,1-.56.55,3.45,3.45,0,0,0-.71.88c-.11.2-.12.2-.31.28l.29.71h0l-.47-.73a2.78,2.78,0,0,0-1.09-.23,3.64,3.64,0,0,0-1.05.14,3.32,3.32,0,0,1-1.21,0,6.1,6.1,0,0,0-.92-.06,1.25,1.25,0,0,1-.52-.09,3.28,3.28,0,0,0-1.08-.17,6.06,6.06,0,0,0-.93.07,4.7,4.7,0,0,1-.67,0,4,4,0,0,0-1,.1,5.57,5.57,0,0,1-1.29,0,4.84,4.84,0,0,0-.93-.07,6.41,6.41,0,0,1-.73,0c-.21,0-.43,0-.86,0a5,5,0,0,0-.94.07,3.27,3.27,0,0,1-1.2,0,3.06,3.06,0,0,0-1.07-.16,2.35,2.35,0,0,0-1.23.32c-.3.15-.47.11-.9,0a3.56,3.56,0,0,0-1.16-.1,5.59,5.59,0,0,0-1.14.28L9,205.2a7.57,7.57,0,0,0-1.24.43l-.34.13a2.47,2.47,0,0,1-.51.11,3.2,3.2,0,0,0-1.16.33,7.19,7.19,0,0,0-1.08.75l-.32.24-.39.27a7.62,7.62,0,0,0-1,.76,2.78,2.78,0,0,0-.62,1.17,2.19,2.19,0,0,1-.16.41,4.26,4.26,0,0,1-.35.38,4.57,4.57,0,0,0-.73.94,4.91,4.91,0,0,1-.25.44,4.94,4.94,0,0,0-.57,1.1,3.3,3.3,0,0,0-.07,1.27,2.78,2.78,0,0,1,0,.49c0,.15,0,.29-.07.44A5.51,5.51,0,0,0,0,216.13a2.83,2.83,0,0,1,0,.5,4.23,4.23,0,0,0,.06,1.26A3.44,3.44,0,0,0,.63,219l.06.08v0L1,220l.41.16.33.06a4.93,4.93,0,0,0,.56,0,6.82,6.82,0,0,1,1-.09,2,2,0,0,1,.58.07c.51.07,1.09.09,1.72.13s1.05.05,1.61.08a4.09,4.09,0,0,0,.93.05A8.48,8.48,0,0,0,9,220.3a3.18,3.18,0,0,1,.74-.05,6,6,0,0,0,.93-.1,4.93,4.93,0,0,1,.66-.07l.88,0a9.15,9.15,0,0,1,1.48,0q.44,0,.87,0a6.28,6.28,0,0,0,.87,0,7.5,7.5,0,0,1,1.43.06,9.48,9.48,0,0,0,1.84,0,3.92,3.92,0,0,1,1.35.06,4.64,4.64,0,0,0,1,.13,3.67,3.67,0,0,0,1.09-.16,2.5,2.5,0,0,1,.51-.09H23a5.93,5.93,0,0,0,1.41-.08,9.63,9.63,0,0,0,1.13-.35l.82-.28c.39-.12.8-.26,1.21-.42s1-.41,1.49-.65a6,6,0,0,0,.83-.51,5.14,5.14,0,0,1,.55-.35l.45-.23,1-.51a4.5,4.5,0,0,1,.55-.22,5.27,5.27,0,0,0,1-.39c.26-.16.51-.33.76-.5s.38-.26.58-.38a2.81,2.81,0,0,1,.56-.25,5.83,5.83,0,0,0,.91-.43,5.65,5.65,0,0,0,.76-.63,3.15,3.15,0,0,1,.48-.41,7.59,7.59,0,0,0,.73-.57c.17-.14.34-.29.52-.41a3.43,3.43,0,0,1,.54-.26,4.65,4.65,0,0,0,.9-.44,7.7,7.7,0,0,0,.71-.57c.18-.15.35-.3.54-.43a6,6,0,0,0,.72-.61,4.06,4.06,0,0,1,.5-.43,2.91,2.91,0,0,1,.53-.26,4.17,4.17,0,0,0,.91-.47,4.78,4.78,0,0,0,.71-.64c.16-.15.31-.31.48-.44a5.51,5.51,0,0,1,.58-.34,6,6,0,0,0,1.49-1.09,4.32,4.32,0,0,1,.51-.45c.24-.18.46-.37.69-.56l.55-.44c.24-.18.47-.38.69-.57s.36-.32.55-.46a3.16,3.16,0,0,1,.54-.31,5.13,5.13,0,0,0,.85-.5c.23-.17.45-.37.67-.56s.37-.31.56-.46.39-.29.59-.43.48-.33.7-.51a5.14,5.14,0,0,0,.7-.7,4.47,4.47,0,0,1,.43-.44c.19-.16.4-.31.6-.45l.67-.51a2.71,2.71,0,0,1,.52-.28,3.78,3.78,0,0,0,.9-.51,3.34,3.34,0,0,0,.71-.83,2.75,2.75,0,0,1,.33-.41c.2-.17.41-.31.61-.46s.45-.33.67-.51a4,4,0,0,1,.56-.35,4.28,4.28,0,0,0,.79-.51,4.93,4.93,0,0,0,.71-.77,3.5,3.5,0,0,1,.37-.43l1.23-1a5.3,5.3,0,0,1,.63-.42,4.74,4.74,0,0,0,.7-.47,2.85,2.85,0,0,1,.45-.32,1.54,1.54,0,0,0,.85-1.27,3.88,3.88,0,0,0,.11-1.27c0-.13,0-.3,0-.54a2.35,2.35,0,0,1,.07-.62,4.14,4.14,0,0,0,.12-1,5,5,0,0,0-.08-1,4.92,4.92,0,0,1,0-.69,2.38,2.38,0,0,1,.07-.65,4.48,4.48,0,0,0,.1-1l-.08-.41a4.73,4.73,0,0,1-.18-1.3,3.37,3.37,0,0,1,.11-.59,6.22,6.22,0,0,0,.17-1.14c0-.32,0-.64,0-1s0-.52,0-.77a6.41,6.41,0,0,1,.09-.78,5.77,5.77,0,0,0,.11-1,10.25,10.25,0,0,0-.16-1.75,4.65,4.65,0,0,0-.09-.85,2.35,2.35,0,0,1-.05-.56,5,5,0,0,0-.07-.86,3.43,3.43,0,0,1,0-.58,1.58,1.58,0,0,1,.15-.28A1.45,1.45,0,0,0,67,170.8Z"/><path class="cls-4" d="M128.24,58.3h-1.38c0-.2,0-.3,0-.4v-.43a2.89,2.89,0,0,1,.06-.49,1.37,1.37,0,0,0,0-.34.6.6,0,0,0,0-.29,1.34,1.34,0,0,1-.09-.55,1.81,1.81,0,0,1,.07-.51.85.85,0,0,0,0-.32c0-.22,0-.33,0-.44a3.25,3.25,0,0,0,0-.39,1.47,1.47,0,0,1,.1-.54.55.55,0,0,0,.06-.29.68.68,0,0,0-.05-.27,1.55,1.55,0,0,1-.1-.56,1,1,0,0,1,.22-.62.31.31,0,0,0,.07-.2,2.93,2.93,0,0,0,0-.36,2.38,2.38,0,0,1,0-.47c0-.07,0-.07-.07-.15a1,1,0,0,1-.27-.69,1.4,1.4,0,0,1,.12-.55.69.69,0,0,0,.06-.28,1.4,1.4,0,0,1,.1-.53.6.6,0,0,0,.06-.29,1.4,1.4,0,0,0,0-.34,2,2,0,0,1,0-.5,1.17,1.17,0,0,1,.15-.58.43.43,0,0,0,.06-.24c0-.07,0-.08-.07-.16a1,1,0,0,1-.25-.68,3.18,3.18,0,0,1,0-.45,2.73,2.73,0,0,0,0-.37,1.76,1.76,0,0,1,.08-.52.8.8,0,0,0,0-.31.38.38,0,0,0-.06-.22,1.09,1.09,0,0,1-.16-.61,1.22,1.22,0,0,1,.18-.61.32.32,0,0,0,.07-.22,3.79,3.79,0,0,1,0-.45,3,3,0,0,0,0-.38c0-.21,0-.32,0-.42s0-.2,0-.41a1.7,1.7,0,0,1,.1-.53.85.85,0,0,0,.06-.29c0-.21,0-.32,0-.43s0-.2,0-.4a2,2,0,0,0,0-.37,1.94,1.94,0,0,1,0-.46.29.29,0,0,0-.07-.2,1.1,1.1,0,0,1-.18-.63,1.13,1.13,0,0,1,.15-.58.61.61,0,0,0,.07-.25.29.29,0,0,0-.07-.2,1.1,1.1,0,0,1-.18-.63,3.78,3.78,0,0,0,0-.38,2.91,2.91,0,0,1,0-.45,1.27,1.27,0,0,1,.11-.55.55.55,0,0,0,.06-.28,1.43,1.43,0,0,1,.11-.54.91.91,0,0,0,.06-.29.48.48,0,0,0-.06-.24,1.2,1.2,0,0,1-.14-.59,1.11,1.11,0,0,1,.21-.62.35.35,0,0,0,.07-.2.29.29,0,0,0-.07-.2,1.1,1.1,0,0,1-.19-.64,2.58,2.58,0,0,0,0-.4v-.42a2,2,0,0,1,.08-.51,1.65,1.65,0,0,0,0-.32,1.39,1.39,0,0,1,.11-.55.55.55,0,0,0,.06-.28c0-.23,0-.34,0-.46a1.58,1.58,0,0,0,0-.37.28.28,0,0,0-.06-.2,1.18,1.18,0,0,1-.18-.63,1,1,0,0,0,0-.33,2,2,0,0,1,0-.5.94.94,0,0,1,.32-.69c.08-.08.08-.08.08-.13a.46.46,0,0,0-.06-.25,1.2,1.2,0,0,1-.13-.58.6.6,0,0,0,0-.29,1.51,1.51,0,0,1-.09-.54,1.27,1.27,0,0,1,.16-.59.36.36,0,0,0,.07-.24,4.17,4.17,0,0,1,0-.44,3.11,3.11,0,0,0,0-.39,2.09,2.09,0,0,1,.06-.48,1.37,1.37,0,0,0,0-.34.5.5,0,0,0-.06-.26,1.36,1.36,0,0,1-.12-.58c0-.2,0-.3,0-.41s0-.2,0-.41a.65.65,0,0,0,0-.27,1.18,1.18,0,0,1-.11-.56,1.12,1.12,0,0,1,.21-.63.25.25,0,0,0,.07-.2,2,2,0,0,0-.08-.43,2.17,2.17,0,0,1-.09-.78,1.33,1.33,0,0,1,.14-.52.86.86,0,0,0,.08-.27,4,4,0,0,1,.06-.43,2.9,2.9,0,0,0,.06-.36,1.62,1.62,0,0,1,.11-.49.81.81,0,0,0,.07-.29.52.52,0,0,0,0-.26,1.41,1.41,0,0,1-.06-.54l0-.39c0-.1,0-.2,0-.4a.39.39,0,0,0,0-.25,1.31,1.31,0,0,1-.06-.55,4,4,0,0,1,.06-.43,1.92,1.92,0,0,0,.05-.36,1.8,1.8,0,0,1,.12-.48,1,1,0,0,0,.06-.3,1.48,1.48,0,0,1,.15-.52.79.79,0,0,0,.08-.27c0-.12,0-.24,0-.35a3.21,3.21,0,0,1,0-.53,2,2,0,0,0,0-.32,1.36,1.36,0,0,1,0-.57l0-.21c0-.23.09-.46.15-.68a3.5,3.5,0,0,1,.24-.55,2.89,2.89,0,0,0,.15-.31,1.73,1.73,0,0,1,.38-.56,1.5,1.5,0,0,0,.19-.25,2.11,2.11,0,0,0,.1-.3,2,2,0,0,1,.23-.59l.17-.27a2.74,2.74,0,0,1,.38-.58,2.45,2.45,0,0,1,.68-.47,3.06,3.06,0,0,0,.29-.18,3.48,3.48,0,0,1,.74-.42l.29-.15a1.51,1.51,0,0,0,.25-.18,2.41,2.41,0,0,1,.74-.45,4.34,4.34,0,0,1,.89-.17l.39-.05a6.76,6.76,0,0,1,.87-.09l.39,0a1.05,1.05,0,0,0,.27-.09,2.78,2.78,0,0,1,1-.22,5.08,5.08,0,0,1,.82.11,2.86,2.86,0,0,0,.45.08l.46,0,.13.33a.45.45,0,0,1-.07.46.92.92,0,0,1-.6.3l-.06,0L138.43,2a4.83,4.83,0,0,1-.59-.1,3.72,3.72,0,0,0-.46-.07,2.3,2.3,0,0,0-.33.1,2.47,2.47,0,0,1-.76.2c-.15,0-.31,0-.46,0a4.65,4.65,0,0,0-.59,0c-.19,0-.38.06-.54.08a2.61,2.61,0,0,0-.5.08,1.21,1.21,0,0,0-.31.21,3,3,0,0,1-.46.33l-.36.17a2.34,2.34,0,0,0-.48.27,4.2,4.2,0,0,1-.48.3,1.42,1.42,0,0,0-.35.22,2,2,0,0,0-.25.39l-.2.34a1,1,0,0,0-.12.34,2.74,2.74,0,0,1-.16.45,2.58,2.58,0,0,1-.32.45,1,1,0,0,0-.22.29,3.62,3.62,0,0,1-.19.4,3.26,3.26,0,0,0-.18.39c-.05.2-.09.41-.14.62l0,.22A1.26,1.26,0,0,0,130,8a1.84,1.84,0,0,1,0,.53A2.47,2.47,0,0,0,130,9a2.36,2.36,0,0,1,0,.46,1.45,1.45,0,0,1-.14.52.73.73,0,0,0-.08.26,1.54,1.54,0,0,1-.11.48,1.33,1.33,0,0,0-.07.3,4,4,0,0,1-.06.43,3.44,3.44,0,0,0-.05.36.49.49,0,0,0,0,.25,1.12,1.12,0,0,1,.06.55c0,.19,0,.29,0,.39l0,.4a.48.48,0,0,0,0,.25,1.16,1.16,0,0,1,.06.55,1.62,1.62,0,0,1-.11.49.64.64,0,0,0-.07.29c0,.22,0,.33-.07.44a1.78,1.78,0,0,0-.05.35,1.48,1.48,0,0,1-.15.52.67.67,0,0,0-.07.27,1.82,1.82,0,0,0,.07.54,2.28,2.28,0,0,1,.1.59,1,1,0,0,1-.21.65.31.31,0,0,0-.07.2.68.68,0,0,0,0,.27,1.32,1.32,0,0,1,.11.56c0,.21,0,.31,0,.41v.42a.39.39,0,0,0,0,.25,1.23,1.23,0,0,1,.12.58,1.64,1.64,0,0,1-.06.48,2.27,2.27,0,0,0,0,.35,3.94,3.94,0,0,1,0,.43,3.38,3.38,0,0,0,0,.39,1.07,1.07,0,0,1-.16.59.43.43,0,0,0-.06.24.57.57,0,0,0,0,.28,1.24,1.24,0,0,1,.09.55.49.49,0,0,0,.06.25,1.2,1.2,0,0,1,.13.58,1,1,0,0,1-.33.7c-.07.07-.07.07-.07.13a1,1,0,0,0,0,.33,2,2,0,0,1,0,.5.31.31,0,0,0,.07.2,1.11,1.11,0,0,1,.17.63,4,4,0,0,1,0,.46,1.58,1.58,0,0,0,0,.37,1.45,1.45,0,0,1-.12.55.51.51,0,0,0-.06.27,2,2,0,0,1-.08.51,1.19,1.19,0,0,0,0,.32,2.58,2.58,0,0,0,0,.4c0,.11,0,.22,0,.43a.31.31,0,0,0,.07.2,1.06,1.06,0,0,1,.19.63,1.17,1.17,0,0,1-.2.62.31.31,0,0,0-.07.21.39.39,0,0,0,0,.24,1.2,1.2,0,0,1,.14.59,1.43,1.43,0,0,1-.11.54.91.91,0,0,0-.06.29,1.35,1.35,0,0,1-.11.55.51.51,0,0,0-.06.27,2.05,2.05,0,0,0,0,.38,2.91,2.91,0,0,1,0,.45.33.33,0,0,0,.07.21,1.14,1.14,0,0,1,.18.62,1.34,1.34,0,0,1-.15.59.36.36,0,0,0-.07.24.28.28,0,0,0,.06.2,1,1,0,0,1,.19.63,1.94,1.94,0,0,0,0,.37,2.54,2.54,0,0,1,0,.46c0,.22,0,.32,0,.43s0,.2,0,.4a1.58,1.58,0,0,1-.1.53.78.78,0,0,0-.05.3c0,.21,0,.32,0,.42s0,.21,0,.41,0,.33,0,.44a2.76,2.76,0,0,0,0,.38,1.22,1.22,0,0,1-.18.61.32.32,0,0,0-.07.22.38.38,0,0,0,.06.22,1.09,1.09,0,0,1,.16.61,1.62,1.62,0,0,1-.08.51.89.89,0,0,0-.05.32,2.34,2.34,0,0,1,0,.46,2.86,2.86,0,0,0,0,.37c0,.07,0,.08.06.16a.93.93,0,0,1,.25.67,1.13,1.13,0,0,1-.15.58.49.49,0,0,0-.06.25,1.06,1.06,0,0,0,0,.34,1.87,1.87,0,0,1,0,.49,1.47,1.47,0,0,1-.1.54.7.7,0,0,0-.06.29,1.24,1.24,0,0,1-.12.55.9.9,0,0,0-.06.28c0,.06,0,.06.07.14a1,1,0,0,1,.28.69,1.13,1.13,0,0,0,0,.35,2,2,0,0,1,0,.48,1.12,1.12,0,0,1-.21.63.25.25,0,0,0-.07.2.53.53,0,0,0,0,.27,1.21,1.21,0,0,1,.1.56,1.47,1.47,0,0,1-.1.54.7.7,0,0,0-.06.29,4.17,4.17,0,0,1,0,.44,3.25,3.25,0,0,0,0,.39,2.16,2.16,0,0,1-.08.51.85.85,0,0,0-.05.32.7.7,0,0,0,.05.28,1.58,1.58,0,0,1,.09.55,2.89,2.89,0,0,1-.06.49,1.29,1.29,0,0,0-.05.34c0,.2,0,.3,0,.4Zm9.76-57a.34.34,0,0,0-.08.35l.26-.06Z"/><path class="cls-1" d="M126.3,45.82c0-.28,0-.41,0-.55s0-.14,0-.28a2.25,2.25,0,0,1,.11-.71,2.3,2.3,0,0,1-.2-1,1.86,1.86,0,0,1,.28-1,1.15,1.15,0,0,1,0-.37,2.16,2.16,0,0,0,0-.31l0-.83a2.3,2.3,0,0,1,.14-.76l0-.89a2,2,0,0,0,0-.28,3.91,3.91,0,0,1,0-.43,1.92,1.92,0,0,1-.25-1,1.86,1.86,0,0,1,.18-.78,1.81,1.81,0,0,1-.2-.88c0-.15,0-.22,0-.3s0-.27,0-.53a2.14,2.14,0,0,1,.17-.81,2.49,2.49,0,0,1,.16-.8,1.83,1.83,0,0,1-.18-.87,1.77,1.77,0,0,1,.21-.82,1.71,1.71,0,0,1-.19-.84v-.83a3,3,0,0,1,.1-.69,2.66,2.66,0,0,1,.2-1,4.15,4.15,0,0,1,0-.55c0-.05,0-.1,0-.17a1.86,1.86,0,0,1-.23-.94,5.43,5.43,0,0,1-.08-.83,1.67,1.67,0,0,1,.33-1,1.69,1.69,0,0,1-.11-.7,2.18,2.18,0,0,1-.14-.83,1.89,1.89,0,0,1,.25-.92,1.69,1.69,0,0,1,0-.39,2.56,2.56,0,0,0,0-.34,3.34,3.34,0,0,1,.07-.63,1.78,1.78,0,0,0,0-.2,1.55,1.55,0,0,1-.18-.83V19.3a2,2,0,0,1-.15-.83,1.83,1.83,0,0,1,.26-.91s0-.09,0-.14a3.22,3.22,0,0,1-.11-1.05,2.12,2.12,0,0,1,.21-.76c0-.27.06-.4.08-.53s0-.15,0-.28a2.23,2.23,0,0,1,.16-.68,3.57,3.57,0,0,1-.07-.91l.08-.79a1.53,1.53,0,0,1-.1-.8c0-.25.05-.37.07-.49a1.43,1.43,0,0,0,0-.29,2.47,2.47,0,0,1,.16-.67,2.86,2.86,0,0,1,.24-.89,1.07,1.07,0,0,0,0-.25,3.73,3.73,0,0,1,0-.67,2.51,2.51,0,0,1,0-.95l0-.2c.05-.25.1-.49.16-.73a3.58,3.58,0,0,1,.3-.7,1.1,1.1,0,0,0,.11-.22,2.76,2.76,0,0,1,.52-.8l.13-.25a2.56,2.56,0,0,1,.34-.81l.12-.21a4.23,4.23,0,0,1,.49-.73,3.32,3.32,0,0,1,.88-.63l.19-.1a4.11,4.11,0,0,1,.88-.51l.25-.13a3.41,3.41,0,0,1,1.11-.68,4.41,4.41,0,0,1,1-.21l.32,0a5.82,5.82,0,0,1,1-.1l.36,0A3.32,3.32,0,0,1,137.38,0a4.35,4.35,0,0,1,.65.06l.09-.09.07.12.15,0,.37.07.93.07.31.76a1.23,1.23,0,0,1-.17,1.2,1.73,1.73,0,0,1-1.06.58l-.56.18-.2-.35-.23-.05-.33-.06s0,0-.07.05a3.85,3.85,0,0,1-1,.25l-.48,0a3,3,0,0,0-.48,0l-.61.09a2.45,2.45,0,0,0-.34,0,2.89,2.89,0,0,1-.66.49l-.38.19-.35.18a4.39,4.39,0,0,1-.56.36,2,2,0,0,0-.22.12l-.1.2c-.08.14-.15.27-.24.4a2.69,2.69,0,0,1-.23.71,2.59,2.59,0,0,1-.43.6c-.13.23-.22.39-.3.55a1.34,1.34,0,0,0-.12.25,4.71,4.71,0,0,0-.12.54l0,.23a2.45,2.45,0,0,1,0,.82,1.11,1.11,0,0,0,0,.26,3.37,3.37,0,0,1,0,.55,1.9,1.9,0,0,1-.21.76,2.59,2.59,0,0,1-.16.69c-.05.35-.07.48-.1.6s0,.16,0,.3a1.57,1.57,0,0,1,.09.8l-.07.79a1.74,1.74,0,0,1,.09.8,2.23,2.23,0,0,1-.16.68c-.05.36-.08.49-.1.62a1.31,1.31,0,0,0,0,.28,2,2,0,0,1-.22.76,1.4,1.4,0,0,0,.05.31,3.51,3.51,0,0,1,.13.75,1.86,1.86,0,0,1-.25,1,2,2,0,0,1,.12.76v.82A1.6,1.6,0,0,1,130,21a2.63,2.63,0,0,1-.07.62,1,1,0,0,0,0,.2c0,.23,0,.36,0,.47s0,.19,0,.36a2,2,0,0,1-.24.92,1.21,1.21,0,0,1,.16.74,1.4,1.4,0,0,1,.18.83,1.58,1.58,0,0,1-.37,1c0,.18,0,.33,0,.52a1.79,1.79,0,0,1,.24.95,4.15,4.15,0,0,1,0,.55,1.7,1.7,0,0,0,0,.28,2.32,2.32,0,0,1-.17.82,2.85,2.85,0,0,1-.11.69l0,.84a1.83,1.83,0,0,1,.25,1,1.74,1.74,0,0,1-.24.87,1.48,1.48,0,0,1,.16.78,2.34,2.34,0,0,1-.15.79,2.28,2.28,0,0,1-.19.86,2.46,2.46,0,0,0,0,.31,4,4,0,0,1,0,.41,1.79,1.79,0,0,1,.24,1,2.11,2.11,0,0,1-.17.78,1.78,1.78,0,0,1,.2.88c0,.13,0,.2,0,.27a3.69,3.69,0,0,1,0,.56l0,.83a2.3,2.3,0,0,1-.14.76l0,.89a4.39,4.39,0,0,1,0,.52c0,.08,0,.15,0,.31a1.79,1.79,0,0,1-.2.83,1.75,1.75,0,0,1,.17.83,2.29,2.29,0,0,1-.11.71,6,6,0,0,1-.06.66s0,.06,0,.1a1.69,1.69,0,0,1,.31,1,2,2,0,0,1-.23.9,2.78,2.78,0,0,1,.08.75,2.08,2.08,0,0,1-.15.79,2.27,2.27,0,0,1-.13.73,1.62,1.62,0,0,1,.29,1,1.16,1.16,0,0,0,0,.22,2.48,2.48,0,0,1,0,.62,1.7,1.7,0,0,1-.25.9,2.33,2.33,0,0,1,.12.76,2.39,2.39,0,0,1-.15.78c0,.29,0,.42,0,.54a2.38,2.38,0,0,0,0,.33,2.58,2.58,0,0,1-.11.7,5.13,5.13,0,0,1,.12,1,2.61,2.61,0,0,1-.08.63l-.78.18.76,0c0,.18,0,.26,0,.35s0,.24,0,.48v.75l-2.89,0V57.93c0-.14,0-.26,0-.49a3.05,3.05,0,0,1,.08-.64.84.84,0,0,0,0-.19,2.22,2.22,0,0,1-.13-.83,2.25,2.25,0,0,1,.1-.7c0-.37,0-.5,0-.61s0-.19,0-.35a1.87,1.87,0,0,1,.15-.78,2.75,2.75,0,0,1-.14-.88,1.84,1.84,0,0,1,.28-1,.31.31,0,0,0,0-.1c0-.11,0-.22,0-.39a1.67,1.67,0,0,1-.34-1.05,2.16,2.16,0,0,1,.17-.82,2.4,2.4,0,0,1,.15-.79v-.23a2.94,2.94,0,0,1-.06-.65"/><path class="cls-1" d="M137.45,116.65a3,3,0,0,1-.71-.08,4.63,4.63,0,0,1-1.26-.62l-.57-.33a4.6,4.6,0,0,1-1.17-.8,7.39,7.39,0,0,1-1.86-4.74,6.44,6.44,0,0,1,.27-1.7l.06-.27a5.2,5.2,0,0,1,.5-1.37,3.45,3.45,0,0,1,.92-1,2.37,2.37,0,0,0,.29-.25,6.42,6.42,0,0,1,1.35-1l.29-.18a4.62,4.62,0,0,1,1.22-.6,6.1,6.1,0,0,1,5,.6,3.68,3.68,0,0,1,1,.91l.25.28a3.36,3.36,0,0,0,.29.24,3.15,3.15,0,0,1,.95,1,6.36,6.36,0,0,1,.62,1.63,3,3,0,0,1,0,1.34,2.33,2.33,0,0,0,0,.38,2.47,2.47,0,0,0,0,.38,3,3,0,0,1,0,1.35,7.1,7.1,0,0,1-.64,1.62,6.47,6.47,0,0,1-1.05,1.4,5,5,0,0,1-1.2.84l-.44.26a5.42,5.42,0,0,1-1.37.63,3.63,3.63,0,0,1-1.34,0,4.28,4.28,0,0,0-.8,0A6.07,6.07,0,0,1,137.45,116.65Zm1-10.91a4.33,4.33,0,0,0-1,.2,2.17,2.17,0,0,0-.64.33l-.39.24a4.27,4.27,0,0,0-.87.64,4.93,4.93,0,0,1-.49.42,2,2,0,0,0-.36.33,3.47,3.47,0,0,0-.25.77l-.08.31a4.31,4.31,0,0,0-.19,1.1,4.42,4.42,0,0,0,.17,1.11,4.49,4.49,0,0,0,.37,1.06,4.69,4.69,0,0,0,.65.94,2.87,2.87,0,0,0,.63.4l.71.42a2.76,2.76,0,0,0,.63.33,1.78,1.78,0,0,0,.5,0,6,6,0,0,1,1.27,0,2.36,2.36,0,0,0,.51,0,3.26,3.26,0,0,0,.79-.4l.5-.28a3.53,3.53,0,0,0,.7-.46,4.23,4.23,0,0,0,.67-.93,4,4,0,0,0,.41-1.06s0-.23-.05-.35a4.15,4.15,0,0,1-.09-.78,4.78,4.78,0,0,1,.08-.75,2.13,2.13,0,0,0,0-.39,5.07,5.07,0,0,0-.38-1.06,2.3,2.3,0,0,0-.34-.28,4.77,4.77,0,0,1-.54-.45c-.13-.14-.26-.28-.38-.43a2,2,0,0,0-.38-.39,4.14,4.14,0,0,0-1-.45A4.31,4.31,0,0,0,138.48,105.74Z"/><path class="cls-1" d="M94.79,155.61,93,154.16a3.87,3.87,0,0,1,.78-.73,1.35,1.35,0,0,0,.31-.29c.25-.3.37-.45.5-.59L95,152a2.84,2.84,0,0,0,.3-.45,4.84,4.84,0,0,1,.53-.79,3.48,3.48,0,0,1,.77-.72,1.26,1.26,0,0,0,.32-.3c.26-.32.4-.47.54-.62a5.73,5.73,0,0,0,.44-.5.77.77,0,0,0,.17-.32,3.08,3.08,0,0,1,.56-1,3.86,3.86,0,0,0,.37-.52c.12-.17.24-.35.5-.67a4.9,4.9,0,0,1,.68-.69,2.7,2.7,0,0,0,.37-.38l.92-1.16c.22-.27.33-.41.43-.55s.24-.32.49-.63a1.69,1.69,0,0,0,.27-.42,4.88,4.88,0,0,1,.54-.84,4.1,4.1,0,0,1,.76-.72,1.22,1.22,0,0,0,.33-.32.92.92,0,0,0,.11-.29,1.76,1.76,0,0,1,1.74-1.47h0c.55,0,1.48.23,1.62,1.69,0,.09,0,.23,0,.27l.71,1.15c.15.24.24.35.32.46a4.35,4.35,0,0,1,.49.68,1.64,1.64,0,0,0,.27.33,3.35,3.35,0,0,1,.62.76,2.6,2.6,0,0,1,.36.9,2.42,2.42,0,0,1,.74-.54,7.15,7.15,0,0,0,.53-.65c.1-.16.2-.31.42-.61a1.39,1.39,0,0,0,.23-.39,3.62,3.62,0,0,1,.47-.82,5.39,5.39,0,0,0,.35-.51c.11-.17.21-.33.44-.65a3,3,0,0,0,.29-.46,6.34,6.34,0,0,1,.46-.72,2.76,2.76,0,0,1,.89-.79.44.44,0,0,0,.19-.16,1,1,0,0,0,.16-.32,3,3,0,0,1,.49-.94,5,5,0,0,1,.55-.65,3.14,3.14,0,0,0,.35-.42.83.83,0,0,0,.17-.32,3,3,0,0,1,.49-.93,6.11,6.11,0,0,1,.52-.64,5.68,5.68,0,0,0,.36-.45,3.67,3.67,0,0,1,.7-.72,1.18,1.18,0,0,0,.28-.3.45.45,0,0,0,.12-.26,2.93,2.93,0,0,1,.49-1l.47-.6.4-.51c.18-.25.26-.38.34-.51s.21-.34.44-.66l1.86,1.36c-.18.25-.26.38-.34.51s-.21.34-.45.66-.34.46-.46.6-.21.26-.4.52a.62.62,0,0,0-.12.26,2.93,2.93,0,0,1-.49,1,3.81,3.81,0,0,1-.7.73,1.3,1.3,0,0,0-.28.29,7.21,7.21,0,0,1-.52.63,5,5,0,0,0-.37.45.87.87,0,0,0-.16.32,3.27,3.27,0,0,1-.49.94,5.83,5.83,0,0,1-.56.65,5.16,5.16,0,0,0-.35.41,1.06,1.06,0,0,0-.16.32,3,3,0,0,1-.49.94,2.64,2.64,0,0,1-.88.79c-.12.07-.13.07-.19.16a3,3,0,0,0-.29.46,5.16,5.16,0,0,1-.46.72c-.18.26-.27.38-.35.52s-.21.33-.44.64a1.81,1.81,0,0,0-.22.39,4.57,4.57,0,0,1-.48.83c-.19.26-.29.39-.38.53s-.2.3-.42.6a2.47,2.47,0,0,1-1,.8.4.4,0,0,0-.17.3,1.57,1.57,0,0,1-1.66,1.58,1.78,1.78,0,0,1-1.71-1.39,1.34,1.34,0,0,0-.12-.31,2.52,2.52,0,0,1-.4-1.16.32.32,0,0,0,0-.2,1.7,1.7,0,0,0-.27-.33,3.35,3.35,0,0,1-.62-.76,4.77,4.77,0,0,0-.32-.45,4.35,4.35,0,0,1-.49-.68c-.2-.31-.29-.46-.38-.62L106,142a3.53,3.53,0,0,1-.63.57,1.94,1.94,0,0,0-.34.32,2.36,2.36,0,0,0-.27.43,4,4,0,0,1-.54.83l-.43.56-.49.62-.92,1.16a5,5,0,0,1-.67.69,1.89,1.89,0,0,0-.38.38c-.19.24-.28.38-.37.51s-.24.35-.5.68a.73.73,0,0,0-.18.32,2.82,2.82,0,0,1-.55,1c-.26.32-.4.47-.54.62a5.73,5.73,0,0,0-.44.5,3.28,3.28,0,0,1-.77.72,1.1,1.1,0,0,0-.32.3,2.84,2.84,0,0,0-.3.45,4.84,4.84,0,0,1-.53.79c-.24.3-.37.44-.49.59l-.45.55a3.47,3.47,0,0,1-.78.72A1.42,1.42,0,0,0,94.79,155.61Z"/><path class="cls-1" d="M23.06,145.75a1.15,1.15,0,0,1-1-.61c-.08-.15-.18-.29-.27-.43a5.73,5.73,0,0,1-.52-.89c-.2-.47-.41-.94-.57-1.42a3.84,3.84,0,0,1-.19-1.07,3.06,3.06,0,0,0-.06-.45,5.11,5.11,0,0,1-.14-1,4.28,4.28,0,0,0-.05-.49,4.12,4.12,0,0,0-.13-.47,4.43,4.43,0,0,1-.23-1,10.76,10.76,0,0,1,0-1.13v-.39a2.15,2.15,0,0,0-.08-.42,3.75,3.75,0,0,1-.13-1.12l0-.39a10.73,10.73,0,0,1,.1-1.14,2.75,2.75,0,0,1,.52-1.18,2.3,2.3,0,0,0,.16-.27,3.2,3.2,0,0,0,.06-.46,5.1,5.1,0,0,1,.18-1,5.33,5.33,0,0,1,.43-.94,2.82,2.82,0,0,0,.36-.91,5.4,5.4,0,0,1,.34-1l.15-.3c.17-.36.35-.71.55-1.06.09-.14.16-.29.24-.44a6.07,6.07,0,0,1,.5-.9l.24-.36c.21-.3.42-.61.65-.89a4.59,4.59,0,0,1,.8-.71,3.72,3.72,0,0,0,.37-.3,3,3,0,0,0,.23-.35,3.56,3.56,0,0,1,.7-.9,7.19,7.19,0,0,1,.84-.61c.14-.09.29-.18.42-.28l.37-.28a8.83,8.83,0,0,1,.87-.64,8.6,8.6,0,0,1,.95-.5l.7-.35c.36-.19.73-.38,1.11-.54a5.1,5.1,0,0,1,1-.28,3.52,3.52,0,0,0,.49-.11,4.62,4.62,0,0,0,.47-.19,6.68,6.68,0,0,1,1-.34l.47-.13a7.58,7.58,0,0,1,1-.25,2.08,2.08,0,0,1,1.18.13,1.3,1.3,0,0,0,.29-.08,4,4,0,0,1,.73-.18A1.15,1.15,0,0,1,38.5,119a1.73,1.73,0,0,0-.34.09,4.8,4.8,0,0,1-.73.19,2.15,2.15,0,0,1-1.18-.14,5.57,5.57,0,0,0-.7.18l-.58.16a4.57,4.57,0,0,0-.62.22,5.73,5.73,0,0,1-.64.26,7.31,7.31,0,0,1-.78.18,3.33,3.33,0,0,0-.55.14c-.32.13-.62.3-.93.46l-.78.39c-.24.12-.49.23-.72.37a8.05,8.05,0,0,0-.66.49l-.42.33c-.18.13-.37.25-.56.37s-.39.25-.57.4a3.15,3.15,0,0,0-.24.36,4.66,4.66,0,0,1-.55.77,8.18,8.18,0,0,1-.64.53,4.6,4.6,0,0,0-.41.34c-.18.23-.34.47-.5.71l-.28.4a4.08,4.08,0,0,0-.32.58c-.1.21-.2.42-.32.62s-.31.57-.46.87l-.15.32a2.53,2.53,0,0,0-.18.55c-.07.25-.14.5-.23.74s-.22.46-.34.68a3.54,3.54,0,0,0-.25.52,3.76,3.76,0,0,0-.08.56,6.5,6.5,0,0,1-.12.77,2.94,2.94,0,0,1-.49,1,2.66,2.66,0,0,0-.17.27c0,.26-.05.58-.06.89l0,.43a2.53,2.53,0,0,0,.08.43,3.88,3.88,0,0,1,.14.92v.42c0,.3,0,.61,0,.92a2.33,2.33,0,0,0,.14.53,7.1,7.1,0,0,1,.2.76c0,.25.06.49.08.74a3.07,3.07,0,0,0,.07.6,4.6,4.6,0,0,1,.12.84,3.74,3.74,0,0,0,.07.5c.15.42.33.85.51,1.26a3.25,3.25,0,0,0,.32.53,6.65,6.65,0,0,1,.39.63,1.15,1.15,0,0,1-.47,1.56A1.19,1.19,0,0,1,23.06,145.75Z"/></svg>
