<svg id="Layer_1" data-name="Layer 1" xmlns="http://www.w3.org/2000/svg" viewBox="0 0 212.33 286.42"><title>rabbit</title><path d="M622.18,590.49a1.64,1.64,0,0,0-1-1,1.94,1.94,0,0,0-2.53.77,2.25,2.25,0,0,1-.38.42,3.78,3.78,0,0,0-1,1,1.44,1.44,0,0,1-.42.45l-1.62,1.2c-.38.28-.58.4-.78.53s-.46.29-.9.61a1.27,1.27,0,0,1-.52.24,3.38,3.38,0,0,0-1.38.63c-.44.33-.65.51-.87.69a9,9,0,0,1-.72.57l-1.63,1.21a4.34,4.34,0,0,0-1,.93,1.94,1.94,0,0,1-.5.49,7,7,0,0,0-.93.8,3.84,3.84,0,0,1-.62.54c-.43.31-.63.47-.84.63s-.39.31-.79.6-.57.39-.77.52-.47.29-.92.62a3.15,3.15,0,0,1-.69.41,6.15,6.15,0,0,0-1.06.65,4.62,4.62,0,0,0-1,.91,2.08,2.08,0,0,1-.52.49,4.35,4.35,0,0,1-.72.46,6.76,6.76,0,0,0-1,.64,6.34,6.34,0,0,1-.72.46,7.44,7.44,0,0,0-1,.63,5.27,5.27,0,0,0-.93.82,4.13,4.13,0,0,1-.61.54,1.13,1.13,0,0,1-.52.23,3.41,3.41,0,0,0-1.39.63,4.13,4.13,0,0,0-.93.95.62.62,0,0,1-.36.29,4.17,4.17,0,0,1-.52.16,1.85,1.85,0,0,0-1.56,2.35,1.72,1.72,0,0,0,2.13,1.52.87.87,0,0,1,.46,0,5.41,5.41,0,0,1,.81.35,5.27,5.27,0,0,0,.79.39l-.49.35c-.19.14-.38.28-.77.53a4.58,4.58,0,0,0-1,.81,3,3,0,0,1-.59.48,2.47,2.47,0,0,1-.68.32,5.12,5.12,0,0,0-1.18.57,1.79,1.79,0,0,1-.63.29,4.42,4.42,0,0,0-1.24.56,3.15,3.15,0,0,0-1.11,1.15.86.86,0,0,1-.36.37c-.45.29-.67.44-.89.6s-.39.28-.81.54a1.46,1.46,0,0,1-.58.24,3.81,3.81,0,0,0-1.33.55,9.53,9.53,0,0,0-.94.67,8.44,8.44,0,0,1-.73.51l-1.72,1.11a2.52,2.52,0,0,1-.69.34,5.58,5.58,0,0,0-1.17.57,4.08,4.08,0,0,0-1.07,1,1.55,1.55,0,0,1-.47.44,1,1,0,0,1-.44.09,1.88,1.88,0,0,0-1.18,3.25,1.81,1.81,0,0,0,1.53.26,1.54,1.54,0,0,1,.39,0,3.48,3.48,0,0,1,.66.31,5.15,5.15,0,0,0,.82.41l-.16.13a11.53,11.53,0,0,0-.93.92,7.3,7.3,0,0,1-.74.73,4,4,0,0,0-.92,1.15c-.16.27-.17.27-.41.37l.37.94h0l-.62-1a3.56,3.56,0,0,0-1.43-.3,4.31,4.31,0,0,0-1.37.19,4.59,4.59,0,0,1-1.6,0,8.05,8.05,0,0,0-1.21-.08,1.59,1.59,0,0,1-.68-.12,4.38,4.38,0,0,0-1.42-.22,8,8,0,0,0-1.22.08,5.59,5.59,0,0,1-.88.06,5.63,5.63,0,0,0-1.27.13,6.83,6.83,0,0,1-1.69,0,7.8,7.8,0,0,0-1.22-.09c-.48,0-.72,0-1,0s-.57,0-1.14,0a7.84,7.84,0,0,0-1.23.09,4.1,4.1,0,0,1-1.59,0,4.35,4.35,0,0,0-1.4-.21,3.12,3.12,0,0,0-1.62.42c-.39.21-.61.15-1.18,0a4.87,4.87,0,0,0-1.52-.13,7.65,7.65,0,0,0-1.5.37c-.22.07-.43.14-.65.19a10.7,10.7,0,0,0-1.62.57l-.45.18a3.31,3.31,0,0,1-.67.13,4.3,4.3,0,0,0-1.53.44,11.32,11.32,0,0,0-1.43,1l-.41.32-.52.36a8.68,8.68,0,0,0-1.29,1,3.52,3.52,0,0,0-.82,1.54,2.83,2.83,0,0,1-.22.53,3.65,3.65,0,0,1-.45.51,5.49,5.49,0,0,0-1,1.24c-.1.19-.22.38-.34.57a6.56,6.56,0,0,0-.74,1.45,4.19,4.19,0,0,0-.1,1.66,3,3,0,0,1,0,.65,5.21,5.21,0,0,1-.09.57,7.89,7.89,0,0,0-.15,1.68,3.56,3.56,0,0,1,0,.65,5.57,5.57,0,0,0,.07,1.66,4.53,4.53,0,0,0,.73,1.44l.08.12,0,0,.37,1.12.54.21.43.08a4.72,4.72,0,0,0,.74-.07,9.47,9.47,0,0,1,1.37-.11,3,3,0,0,1,.76.08c.68.11,1.43.12,2.26.18.67.06,1.38.06,2.13.11a4.83,4.83,0,0,0,1.21,0,11.07,11.07,0,0,0,1.14-.07,4.59,4.59,0,0,1,1-.06,8.56,8.56,0,0,0,1.23-.13,5.16,5.16,0,0,1,.87-.1l1.16-.06a14,14,0,0,1,1.94,0c.38,0,.77,0,1.14,0a8.7,8.7,0,0,0,1.15,0,10.64,10.64,0,0,1,1.88.07,11,11,0,0,0,2.42.06,5.46,5.46,0,0,1,1.78.08,6,6,0,0,0,1.25.18,5.18,5.18,0,0,0,1.44-.22,3.83,3.83,0,0,1,.67-.12h.47a7.21,7.21,0,0,0,1.86-.1,10.4,10.4,0,0,0,1.48-.46l1.09-.37c.51-.16,1-.33,1.58-.55s1.29-.54,2-.86a7.26,7.26,0,0,0,1.09-.67,6.76,6.76,0,0,1,.72-.46l.6-.3,1.28-.66a3.83,3.83,0,0,1,.73-.29,6.81,6.81,0,0,0,1.24-.53,10.82,10.82,0,0,0,1-.65c.25-.17.5-.34.76-.5a4.5,4.5,0,0,1,.74-.33,5.3,5.3,0,0,0,2.2-1.39,3.87,3.87,0,0,1,.62-.53,8.65,8.65,0,0,0,1-.76,6.08,6.08,0,0,1,.69-.54,4.2,4.2,0,0,1,.7-.33,6,6,0,0,0,1.2-.59c.32-.23.63-.48.93-.74a7.7,7.7,0,0,1,.71-.57,9,9,0,0,0,1-.81,5.1,5.1,0,0,1,.65-.57,4.08,4.08,0,0,1,.69-.33,5.29,5.29,0,0,0,1.2-.62,6.8,6.8,0,0,0,.94-.84,5.77,5.77,0,0,1,.63-.58,7.23,7.23,0,0,1,.76-.45,10.14,10.14,0,0,0,1-.64c.32-.24.61-.52.91-.79a6.37,6.37,0,0,1,.67-.6c.31-.23.61-.48.9-.72s.49-.41.74-.59.6-.49.89-.75.48-.41.72-.6a3.89,3.89,0,0,1,.72-.4,7.32,7.32,0,0,0,1.12-.66c.3-.24.59-.49.88-.74l.73-.61.78-.57c.32-.21.63-.43.92-.66a7.27,7.27,0,0,0,.92-.92,4.42,4.42,0,0,1,.56-.58c.26-.21.53-.41.79-.6s.6-.44.89-.67a3.49,3.49,0,0,1,.68-.36,4.9,4.9,0,0,0,1.18-.67,4.85,4.85,0,0,0,.94-1.09,3.29,3.29,0,0,1,.43-.55l.8-.6c.31-.22.6-.44.88-.67a5.69,5.69,0,0,1,.74-.46,6.17,6.17,0,0,0,1-.67,5.85,5.85,0,0,0,.94-1,3.49,3.49,0,0,1,.49-.55l1.6-1.36a5.47,5.47,0,0,1,.84-.55,7.74,7.74,0,0,0,.92-.62,3.4,3.4,0,0,1,.59-.42,2.08,2.08,0,0,0,1.12-1.68,5.06,5.06,0,0,0,.14-1.67c0-.17,0-.39,0-.7a2.79,2.79,0,0,1,.1-.82A5.9,5.9,0,0,0,622,612a7,7,0,0,0-.1-1.27,5.76,5.76,0,0,1-.07-.91,3.74,3.74,0,0,1,.09-.85,5.68,5.68,0,0,0,.13-1.33l-.09-.53a5.63,5.63,0,0,1-.24-1.71,3.38,3.38,0,0,1,.14-.79,7,7,0,0,0,.22-1.48c0-.42,0-.85,0-1.29s0-.68,0-1a8.37,8.37,0,0,1,.12-1,7.47,7.47,0,0,0,.14-1.29,13.69,13.69,0,0,0-.21-2.3,5,5,0,0,0-.12-1.11,3.82,3.82,0,0,1-.07-.74,5.8,5.8,0,0,0-.09-1.14,4.14,4.14,0,0,1-.06-.75,1.77,1.77,0,0,1,.2-.38A1.93,1.93,0,0,0,622.18,590.49Z" transform="translate(-534.05 -369.25)"/><path d="M721.49,510.64a6.65,6.65,0,0,1,.1-1,3,3,0,0,0,.06-.51,6.11,6.11,0,0,0-.5-1.39,2.81,2.81,0,0,0-.45-.38,6.73,6.73,0,0,1-.71-.59c-.17-.18-.34-.37-.5-.56a2.51,2.51,0,0,0-.5-.52,6.09,6.09,0,0,0-1.37-.6,6,6,0,0,0-1.48-.17,5.86,5.86,0,0,0-1.36.26,3,3,0,0,0-.84.43l-.51.32a5,5,0,0,0-1.14.84,7.07,7.07,0,0,1-.65.56,2.63,2.63,0,0,0-.47.42,4.21,4.21,0,0,0-.33,1l-.1.4a5.81,5.81,0,0,0-.25,1.45,5.51,5.51,0,0,0,.22,1.46,5.85,5.85,0,0,0,.48,1.4,6.89,6.89,0,0,0,.86,1.24,3.74,3.74,0,0,0,.83.52l.94.55a3.52,3.52,0,0,0,.82.44,2.62,2.62,0,0,0,.66,0,7.77,7.77,0,0,1,1.67,0,3.18,3.18,0,0,0,.67,0,4.94,4.94,0,0,0,1-.51l.66-.38a4.78,4.78,0,0,0,.91-.6,6,6,0,0,0,.89-1.22,5.85,5.85,0,0,0,.54-1.4c0-.06,0-.3-.07-.46A6,6,0,0,1,721.49,510.64Z" transform="translate(-534.05 -369.25)"/><path d="M746.24,515.7a1.58,1.58,0,0,0-1.44-.7,1.47,1.47,0,0,1-.87-.19c-.54-.27-1.18-.63-1.88-1a3.23,3.23,0,0,1-.64-.61,5.29,5.29,0,0,0-.94-.87c-.56-.38-1.13-.78-1.72-1.24a6.93,6.93,0,0,0-.91-.56,4.38,4.38,0,0,1-.9-.59c-.23-.21-.48-.4-.73-.6a8.7,8.7,0,0,1-.92-.79c-.47-.52-.94-1.07-1.39-1.64a4.48,4.48,0,0,1-.47-.93,5.89,5.89,0,0,0-.49-1,6.23,6.23,0,0,0-.65-.83,4.29,4.29,0,0,1-.65-.89,4.46,4.46,0,0,1-.28-.75,4.8,4.8,0,0,0-.54-1.27,14.74,14.74,0,0,0-1.09-1.36l-.29-.32a5.16,5.16,0,0,0-1.07-.88,7.21,7.21,0,0,1-.62-.47l-.47-.43a8.48,8.48,0,0,0-1.15-1c-.2-.14-.39-.29-.58-.44a7.22,7.22,0,0,0-1.18-.81,3.81,3.81,0,0,0-1.34-.35,4.24,4.24,0,0,1-.79-.16,4.28,4.28,0,0,1-.7-.37,4.54,4.54,0,0,0-1.24-.56,9.18,9.18,0,0,0-1.44-.19c-.24,0-.47,0-.71-.06a4.39,4.39,0,0,1-.78-.18,6.35,6.35,0,0,0-2.12-.22,4.62,4.62,0,0,1-1.18,0l-.6-.12a5.49,5.49,0,0,1-1.33-.35,9.33,9.33,0,0,1-1.73-1,3.61,3.61,0,0,1-.73-.87,8.29,8.29,0,0,0-.6-.79,9,9,0,0,1-1.09-1.45c-.11-.21-.25-.43-.38-.64a4.24,4.24,0,0,1-.58-1.11,3.11,3.11,0,0,1,0-1.07,7.1,7.1,0,0,0,0-.92,6.22,6.22,0,0,1,.14-1.46l.07-.45c0-.23.06-.46.08-.69a5.11,5.11,0,0,1,.22-1.25,3.85,3.85,0,0,1,.39-.83,5.11,5.11,0,0,0,.49-1.09,6,6,0,0,0,.28-1.13,4.2,4.2,0,0,1,.22-.91,4,4,0,0,0,.21-1.24,2.35,2.35,0,0,1,.14-.85c.16-.48.25-.71.35-.94s.21-.51.38-1a2.81,2.81,0,0,1,.39-.8,4,4,0,0,0,.53-1.1,5.28,5.28,0,0,0,.27-1.14,4,4,0,0,1,.21-.91c.17-.5.25-.76.32-1s.15-.5.31-1a3.92,3.92,0,0,1,.38-.83,5,5,0,0,0,.5-1.07,5.76,5.76,0,0,0,.26-1.14,3.87,3.87,0,0,1,.21-.9,4.68,4.68,0,0,1,.37-.85,5,5,0,0,0,.47-1.07c.18-.52.25-.78.32-1s.13-.49.29-1a4.34,4.34,0,0,0,.25-1.18,3.79,3.79,0,0,1,.19-.88,2.19,2.19,0,0,1,.4-.76,4,4,0,0,0,.57-1.12,4.65,4.65,0,0,0,.26-1.15,4,4,0,0,1,.21-.9,5.23,5.23,0,0,1,.37-.88,8.18,8.18,0,0,0,.44-1.06l.65-2c.16-.48.25-.72.35-.95s.2-.51.38-1,.25-.72.35-1,.2-.5.37-1,.26-.72.35-1,.19-.5.37-1l.66-2a5.39,5.39,0,0,0,.27-1.16,4.44,4.44,0,0,1,.2-.9,6.78,6.78,0,0,1,.37-.9,9.26,9.26,0,0,0,.42-1.05,5.43,5.43,0,0,1,.37-.89,7.89,7.89,0,0,0,.45-1.06,3.15,3.15,0,0,0,.17-1.3,2,2,0,0,1,.12-.84c.16-.48.24-.74.31-1s.15-.51.31-1c.1-.26.22-.51.34-.76a9.8,9.8,0,0,0,.52-1.24,4.29,4.29,0,0,1,.36-.79,6.54,6.54,0,0,0,.5-1.21,3.8,3.8,0,0,0,0-1.34,2.87,2.87,0,0,1,0-.87,4.76,4.76,0,0,1,.32-.82,5.15,5.15,0,0,0,.45-1.22,9.4,9.4,0,0,0,.12-1.19c0-.32,0-.63.09-.95a5,5,0,0,1,.28-.86,5.16,5.16,0,0,0,.36-1.21,3.61,3.61,0,0,0-.13-1.33,3.05,3.05,0,0,1-.11-.85c0-.31.1-.62.16-.94s.15-.78.19-1.17a3.19,3.19,0,0,1,.26-.84,3.85,3.85,0,0,0,.36-1.26,9.61,9.61,0,0,0,0-1.2c0-.32,0-.64,0-1a6.11,6.11,0,0,0-.08-1.22,5.84,5.84,0,0,1-.08-.93c0-.32,0-.64.08-1s.08-.79.09-1.18a6.23,6.23,0,0,0-.12-1.22,6.13,6.13,0,0,1-.1-.94,7.45,7.45,0,0,1,.09-1,7.11,7.11,0,0,0,.1-1.2,12.09,12.09,0,0,0-.09-1.21c0-.31-.07-.62-.08-.93s0-.63,0-.94,0-.81,0-1.2a3.83,3.83,0,0,1,.13-.9,4.46,4.46,0,0,0,.13-1.27,4.75,4.75,0,0,0-.3-1.26,4.45,4.45,0,0,1-.22-.85,4.13,4.13,0,0,1,0-.93,5.05,5.05,0,0,0,0-1.23,4.68,4.68,0,0,0-.44-1.26,3.42,3.42,0,0,1-.31-.8,3.34,3.34,0,0,1,0-.94,4.43,4.43,0,0,0,0-1.26,5.54,5.54,0,0,0-.39-1.23,4.6,4.6,0,0,1-.28-.84,5,5,0,0,1-.05-1,5,5,0,0,0-.07-1.22,3.77,3.77,0,0,0-.65-1.28,2.55,2.55,0,0,1-.38-.69,8.54,8.54,0,0,1-.19-.93,9.92,9.92,0,0,0-.27-1.19l-.2-.69c-.15-.49-.29-1-.46-1.4a7.75,7.75,0,0,1-.26-.87,5.4,5.4,0,0,0-.44-1.26,8.22,8.22,0,0,0-1-1.41l-.34-.41a4.48,4.48,0,0,0-1.28-1,4.05,4.05,0,0,1-.53-.35,3.89,3.89,0,0,1-.53-.54,3.28,3.28,0,0,0-1.23-1,2.87,2.87,0,0,0-1.18-.17,3.23,3.23,0,0,1-.69.22l-.73.23-.26-.47-.31-.06-.43-.08s0,0-.1.06a4.37,4.37,0,0,1-1.28.33l-.64,0a3.56,3.56,0,0,0-.63.05c-.29,0-.56.08-.8.11a4.14,4.14,0,0,0-.45.06,3.84,3.84,0,0,1-.86.64l-.5.25a3.51,3.51,0,0,0-.46.24,4.58,4.58,0,0,1-.74.47,1.62,1.62,0,0,0-.28.16,2.37,2.37,0,0,0-.14.27c-.1.18-.2.35-.31.52a4.4,4.4,0,0,1-.3.93,4,4,0,0,1-.57.79c-.18.3-.29.51-.4.73a3.13,3.13,0,0,0-.16.32c-.06.23-.11.47-.16.71l-.06.31a2.91,2.91,0,0,1,.06,1.07c0,.1,0,.22,0,.34a5.9,5.9,0,0,1,0,.73,3,3,0,0,1-.28,1,3.74,3.74,0,0,1-.22.91c-.06.46-.09.62-.12.78s0,.21-.06.4a2,2,0,0,1,.12,1l-.09,1a2.1,2.1,0,0,1,.11,1.05,3.18,3.18,0,0,1-.2.89c-.07.48-.11.65-.14.82a2.9,2.9,0,0,0-.06.36,2.71,2.71,0,0,1-.28,1,1.77,1.77,0,0,0,.07.4,4.36,4.36,0,0,1,.16,1,2.36,2.36,0,0,1-.33,1.26,2.43,2.43,0,0,1,.17,1l0,1.09a2,2,0,0,1,.23,1.09,3.94,3.94,0,0,1-.09.81,1.09,1.09,0,0,0,0,.28c0,.3,0,.46,0,.62s0,.24,0,.46a2.52,2.52,0,0,1-.32,1.22,1.55,1.55,0,0,1,.2,1,1.87,1.87,0,0,1,.25,1.09,2.2,2.2,0,0,1-.49,1.34,4.91,4.91,0,0,1,.06.68,2.42,2.42,0,0,1,.32,1.25,6.75,6.75,0,0,1-.06.73,1.54,1.54,0,0,0,0,.36,2.91,2.91,0,0,1-.23,1.08,3.73,3.73,0,0,1-.14.91l0,1.1a2.45,2.45,0,0,1,0,2.42,2.05,2.05,0,0,1,.21,1,2.65,2.65,0,0,1-.21,1,2.85,2.85,0,0,1-.24,1.13c0,.2,0,.3,0,.4a4,4,0,0,1,0,.54,2.32,2.32,0,0,1,.33,1.25,2.53,2.53,0,0,1-.23,1,2.29,2.29,0,0,1,.27,1.15,1.86,1.86,0,0,0,0,.36,4.68,4.68,0,0,1,0,.73l0,1.09a3.18,3.18,0,0,1-.18,1l-.06,1.17a6.67,6.67,0,0,1,0,.68,3.52,3.52,0,0,0,0,.41,2.37,2.37,0,0,1-.27,1.08,2.41,2.41,0,0,1,.23,1.1,3.07,3.07,0,0,1-.15.93c0,.52-.06.69-.08.88s0,.08,0,.13a2.18,2.18,0,0,1,.41,1.33,2.62,2.62,0,0,1-.3,1.19,3.61,3.61,0,0,1,.11,1,2.85,2.85,0,0,1-.2,1,3,3,0,0,1-.17,1,2.18,2.18,0,0,1,.38,1.27.77.77,0,0,0,0,.29,4.07,4.07,0,0,1,.05.81,2.31,2.31,0,0,1-.34,1.19,2.48,2.48,0,0,1,.16,1,2.89,2.89,0,0,1-.2,1c0,.39,0,.55-.05.71a4.17,4.17,0,0,0,0,.44,3.29,3.29,0,0,1-.14.91,7.39,7.39,0,0,1,.15,1.28,4,4,0,0,1-.1.83l-1,.24,1,0a3.57,3.57,0,0,0,0,.47c0,.16,0,.31,0,.62l0,1-3.79,0v-1.46c0-.18,0-.34,0-.64a4,4,0,0,1,.1-.85.74.74,0,0,0,0-.24,3.25,3.25,0,0,1,0-2c0-.49,0-.66.06-.81s0-.25,0-.46a2.89,2.89,0,0,1,.2-1,3.8,3.8,0,0,1-.18-1.15,2.3,2.3,0,0,1,.37-1.24.52.52,0,0,0,0-.14,4.87,4.87,0,0,1,0-.51,2.24,2.24,0,0,1-.45-1.39,2.76,2.76,0,0,1,.23-1.08,2.83,2.83,0,0,1,.2-1v-.31a3.84,3.84,0,0,1-.07-.85l-.14-2.19a6.76,6.76,0,0,1,.06-.71,2.58,2.58,0,0,0,0-.37,3.33,3.33,0,0,1,.14-.93,3.26,3.26,0,0,1-.26-1.25,2.52,2.52,0,0,1,.37-1.28,1.62,1.62,0,0,1,0-.49,3.81,3.81,0,0,0,0-.41l0-1.09a3.17,3.17,0,0,1,.18-1l.06-1.17a2.8,2.8,0,0,0,0-.36c0-.16,0-.31,0-.57a2.36,2.36,0,0,1-.33-1.26,2.53,2.53,0,0,1,.23-1,2.41,2.41,0,0,1-.26-1.15,3.45,3.45,0,0,0,0-.4c0-.19,0-.36,0-.69a2.76,2.76,0,0,1,.23-1.08,3.1,3.1,0,0,1,.21-1,2.34,2.34,0,0,1-.24-1.14,2.41,2.41,0,0,0,0-2.18v-1.09a3.22,3.22,0,0,1,.14-.91,3.74,3.74,0,0,1,.25-1.26,6.15,6.15,0,0,1,.07-.73,1.27,1.27,0,0,0,0-.22,2.36,2.36,0,0,1-.31-1.24,6.31,6.31,0,0,1-.1-1.09,2.26,2.26,0,0,1,.43-1.26,2.46,2.46,0,0,1-.14-.91,2.89,2.89,0,0,1-.18-1.1,2.43,2.43,0,0,1,.32-1.21,2.89,2.89,0,0,1,0-.51c0-.12,0-.23,0-.45a4.19,4.19,0,0,1,.09-.83.84.84,0,0,0,0-.26,2.11,2.11,0,0,1-.22-1.09v-1.09a2.42,2.42,0,0,1-.2-1.09,2.29,2.29,0,0,1,.34-1.2c0-.05,0-.12,0-.19a4.21,4.21,0,0,1-.15-1.37,3,3,0,0,1,.28-1c0-.35.08-.52.11-.69s0-.2.06-.37a2.86,2.86,0,0,1,.21-.89,4.34,4.34,0,0,1-.08-1.2l.09-1a2.09,2.09,0,0,1-.13-1.05c0-.33.07-.49.1-.65a2.06,2.06,0,0,0,.05-.38,3.37,3.37,0,0,1,.21-.88,3.25,3.25,0,0,1,.32-1.16,1.93,1.93,0,0,0,0-.34,5.19,5.19,0,0,1,0-.88,3.21,3.21,0,0,1,0-1.24l.06-.27c.06-.32.13-.65.22-1a4.46,4.46,0,0,1,.39-.92,2.37,2.37,0,0,0,.14-.29,3.46,3.46,0,0,1,.68-1l.18-.33a3.54,3.54,0,0,1,.41-1c-.26.14-.53.29-.81.46a4.49,4.49,0,0,1-.71.31,4.1,4.1,0,0,0-1.3.66,10.32,10.32,0,0,0-1.14,1.15l-.39.44A10.45,10.45,0,0,0,699,375l-.41.59c-.41.56-.8,1.15-1.19,1.8a4.83,4.83,0,0,1-.5.64,5.57,5.57,0,0,0-.8,1.1,9.06,9.06,0,0,0-.47,1.2c-.09.27-.18.55-.3.83s-.23.49-.36.74a9.54,9.54,0,0,0-.56,1.21,4.86,4.86,0,0,0-.2,1.24,3.18,3.18,0,0,1-.48,1.68,6,6,0,0,0-.5,1.2c-.1.38-.16.78-.23,1.18s-.09.61-.16.92a9.06,9.06,0,0,0-.14,1.18,7.5,7.5,0,0,1-.1.94,3.22,3.22,0,0,1-.32.78,3.91,3.91,0,0,0-.48,1.24,5.14,5.14,0,0,0,0,1.24,4.11,4.11,0,0,1,0,.92c0,.39-.07.78-.1,1.18s0,.63-.07.95-.1.6-.16.91a11.36,11.36,0,0,0-.19,1.19c0,.3-.1.6-.16.91a9.51,9.51,0,0,0-.19,1.19,9,9,0,0,0,0,1.16c0,.32,0,.64,0,1a11.08,11.08,0,0,0,0,1.15,8,8,0,0,1,0,1,5.82,5.82,0,0,1-.13.92,8.2,8.2,0,0,0-.15,1.2,5.7,5.7,0,0,0,.1,1.18,4.92,4.92,0,0,1,.1.94,7.5,7.5,0,0,1-.1.94,9.57,9.57,0,0,0-.11,1.19c0,.38,0,.76,0,1.14s0,.67,0,1a5.09,5.09,0,0,1-.07,1,6.94,6.94,0,0,0-.08,1.13,6.48,6.48,0,0,1-.06.95,6,6,0,0,0-.08,1.13c0,.54,0,.81,0,1.08s0,.5,0,1,0,.82,0,1.09a9.94,9.94,0,0,1,0,1,6,6,0,0,0,.09,1.15,6,6,0,0,1,.07.94,1.64,1.64,0,0,1-.17.78,3,3,0,0,0-.28,1.31,8.69,8.69,0,0,0,.07,1.12,6.64,6.64,0,0,1,.06,1,3.94,3.94,0,0,0,.18,1.23,2.52,2.52,0,0,1,.13.85c0,.5,0,.75,0,1s0,.55,0,1.1,0,.82,0,1.09,0,.5,0,1a1.9,1.9,0,0,1-.16.81,3.1,3.1,0,0,0-.24,1.27,3.56,3.56,0,0,0,.21,1.26,2.2,2.2,0,0,1,.14.84,6.59,6.59,0,0,1-.06.95,6.94,6.94,0,0,0-.08,1.13,3.15,3.15,0,0,1-.11.9,4.89,4.89,0,0,0-.13,1.19,4,4,0,0,0,.17,1.23,2.54,2.54,0,0,1,.13.86,2.72,2.72,0,0,1-.12.88,4.26,4.26,0,0,0-.16,1.21,3.59,3.59,0,0,0,.2,1.25,2.2,2.2,0,0,1,.14.84,7.09,7.09,0,0,0,.08,1.14,6,6,0,0,1,.07.94c0,.54,0,.81,0,1.08s0,.51,0,1a2.75,2.75,0,0,1-.12.89,4.32,4.32,0,0,0-.15,1.2c0,.51,0,.77,0,1s0,.54,0,1.07v2.08a3,3,0,0,1-.12.88,4.35,4.35,0,0,0-.15,1.21,2.75,2.75,0,0,0,.3,1.32,1.63,1.63,0,0,1,.17.77,6.69,6.69,0,0,1-.06,1,8.56,8.56,0,0,0-.07,1.12c0,.5,0,.75,0,1a9.46,9.46,0,0,0,0,1.11,7.08,7.08,0,0,0,.07,1.12,7,7,0,0,1,.06,1c0,.53,0,.8,0,1.07s0,.51,0,1,0,.75,0,1,0,.56,0,1.1,0,.75,0,1,0,.55,0,1.1a9.4,9.4,0,0,1,0,1,7.13,7.13,0,0,0-.07,1.13,4.35,4.35,0,0,0,.15,1.21,3.06,3.06,0,0,1,.12.89,6.69,6.69,0,0,1-.06,1,7.09,7.09,0,0,0-.08,1.14c0,.51,0,.76,0,1s0,.55,0,1.1,0,1.32,0,2c0,.31,0,.62,0,.93a7.48,7.48,0,0,1,0,1.06c0,.33,0,.65,0,1a5.76,5.76,0,0,1-.06,1l0,.32c-.08.55-.17,1.11-.29,1.65a3.4,3.4,0,0,1-.34.87,6.52,6.52,0,0,0-.4,1c-.08.33-.13.66-.18,1a4.5,4.5,0,0,1-.19,1,3.21,3.21,0,0,1-.44.76,4.32,4.32,0,0,0-.56,1c-.14.34-.31.67-.47,1s-.26.52-.38.78a4.84,4.84,0,0,0-.3,1.08,4.42,4.42,0,0,1-.24.86c-.13.25-.25.51-.37.78s-.31.69-.5,1a9.13,9.13,0,0,1-.62.91c-.18.24-.35.48-.51.73s-.46.64-.7.95-.33.43-.49.64-.5.63-.76.93l-.51.6a8.84,8.84,0,0,0-.57.88,4.51,4.51,0,0,1-.52.79,10.94,10.94,0,0,1-.84.83l-.59.57a2.81,2.81,0,0,1-.62.48,3.89,3.89,0,0,0-.87.69,8.33,8.33,0,0,0-.68.74,8.41,8.41,0,0,1-.6.65,7.91,7.91,0,0,0-.68.76,5.93,5.93,0,0,1-.58.65,8.47,8.47,0,0,0-.67.79,4.66,4.66,0,0,1-.7.8,12.6,12.6,0,0,1-1.26.91l-.44.31a2.88,2.88,0,0,1-.86.29,4,4,0,0,0-1.15.39,4.52,4.52,0,0,0-.91.74,3,3,0,0,1-.73.58l-.59.27a11.54,11.54,0,0,1-1.31.57,16.39,16.39,0,0,1-1.7.46l-.32.08a6,6,0,0,1-1.08.11,8.26,8.26,0,0,0-1,.07,7.13,7.13,0,0,0-1,.24,5.55,5.55,0,0,1-1,.22,3,3,0,0,1-1-.13,6,6,0,0,0-1.09-.17c-.54,0-1.07-.08-1.6-.15l-.44-.06a20.38,20.38,0,0,1-2-.36c-.54-.12-1-.28-1.57-.45l-.37-.12c-1.09-.38-1.23,0-2.05-.36l-1-.35-1-.35-1.93-.72a1.57,1.57,0,0,1-.66-.43,2.89,2.89,0,0,0-1.11-.71,6.47,6.47,0,0,0-1.08-.32,7.21,7.21,0,0,1-.91-.28,3.63,3.63,0,0,0-1.25-.23,2,2,0,0,1-.82-.15,1.54,1.54,0,0,1-.66-.43,3.07,3.07,0,0,0-1.12-.71,9.86,9.86,0,0,0-1.06-.33,6.77,6.77,0,0,1-.92-.28,3.6,3.6,0,0,0-1.22-.25,2.43,2.43,0,0,1-.84-.17,1.85,1.85,0,0,1-.68-.43,2.82,2.82,0,0,0-1.11-.69,3.27,3.27,0,0,0-1.26-.23,2.15,2.15,0,0,1-.81-.15,9.24,9.24,0,0,1-.93-.38c-.24-.1-.49-.21-1-.4l-1-.35-1-.35a3.31,3.31,0,0,1-.79-.4,4.58,4.58,0,0,0-1.07-.55,3.3,3.3,0,0,0-1.28-.22,2.05,2.05,0,0,1-.81-.14,1.28,1.28,0,0,1-.55-.51,1.35,1.35,0,0,0-.94-.64,1.48,1.48,0,0,0-1,2.39,1.77,1.77,0,0,1,.36.68,7.83,7.83,0,0,1,.22,1,11,11,0,0,0,.25,1.14,8.78,8.78,0,0,1,.23,1c.06.29.11.57.26,1.14a3.05,3.05,0,0,0,.84,1.33,3.63,3.63,0,0,1,.28.34,2.61,2.61,0,0,1-.37-.31,3.84,3.84,0,0,0-1.1-.79,10.8,10.8,0,0,0-1-.38c-.24-.08-.48-.16-1-.36a3,3,0,0,1-.8-.45,5.08,5.08,0,0,0-1.07-.6c-.52-.22-.78-.3-1-.39a9.22,9.22,0,0,1-1-.34,5.26,5.26,0,0,1-.84-.45,6.06,6.06,0,0,0-1-.55l-2-.82a6.11,6.11,0,0,0-1.12-.37,4.26,4.26,0,0,1-.92-.3,4.82,4.82,0,0,1-.87-.44,6.75,6.75,0,0,0-1-.52c-.47-.2-.69-.31-.92-.43a9.21,9.21,0,0,0-1-.49,8.62,8.62,0,0,0-1.1-.38,5.38,5.38,0,0,1-.92-.32,5.09,5.09,0,0,0-1.18-.34,3.23,3.23,0,0,1-.89-.26l-2-.82-1-.43-1-.43a1.93,1.93,0,0,1-.7-.47,3.21,3.21,0,0,0-1.12-.75,5.32,5.32,0,0,0-1.14-.36,3.91,3.91,0,0,1-.91-.29,2,2,0,0,1-.62-.42,1.38,1.38,0,0,0-1.95-.14,1.14,1.14,0,0,0-.55.83,1,1,0,0,0,.31.77,3.56,3.56,0,0,0,.58.31,1.81,1.81,0,0,0,.63.17,4.54,4.54,0,0,1,1.29.35,4.46,4.46,0,0,1,1.13.68,2.18,2.18,0,0,0,.57.34c.5.22.74.35,1,.48s.39.21.8.38a1.52,1.52,0,0,0,.57.14,3.86,3.86,0,0,1,1.37.33,1.24,1.24,0,0,1-.49,2.38,1.21,1.21,0,0,1-.49-.11,1.4,1.4,0,0,0-.58-.13,3.9,3.9,0,0,1-1.36-.34,9.86,9.86,0,0,1-1-.47,6.7,6.7,0,0,0-.79-.38,4.57,4.57,0,0,1-1.13-.68,1.94,1.94,0,0,0-.45-.29s0,.08,0,.12a5,5,0,0,0,.3,1,4.15,4.15,0,0,1,.25.79,4.79,4.79,0,0,0,.31,1,1.54,1.54,0,0,0,.08.19L594,514a7,7,0,0,1-.77-.4,7.55,7.55,0,0,0-1.14-.56,4.78,4.78,0,0,1-.79-.38,5.29,5.29,0,0,0-1.18-.53,5.86,5.86,0,0,0-1.29-.17,5.82,5.82,0,0,1-.85-.09,13,13,0,0,0-1.38-.18l-.74-.08a8,8,0,0,1-.85-.18,6.38,6.38,0,0,0-1.26-.23,8.18,8.18,0,0,0-1.32.06c-.28,0-.56.06-.83.07h-.68a14.17,14.17,0,0,0-1.46,0c-.27,0-.55,0-.83,0a9.65,9.65,0,0,0-1.32.07A4.13,4.13,0,0,0,576,512a3.89,3.89,0,0,1-.76.32,4.52,4.52,0,0,1-.85.05,4.63,4.63,0,0,0-1.31.13l-.62.18a14.09,14.09,0,0,0-1.44.44,11.33,11.33,0,0,0-1.23.56,7.77,7.77,0,0,1-.71.35c-.42.19-.83.42-1.23.65l-.66.37a2.44,2.44,0,0,1-.34.14l.13.43a2,2,0,0,0-.47.19,3.7,3.7,0,0,1-.73.29,2.27,2.27,0,0,0-.49.19,5,5,0,0,1-.71.27l-.39.09-.15.11-.56.42a7.92,7.92,0,0,0-1,.86,7,7,0,0,1-.62.6,5.9,5.9,0,0,0-.88.93c-.19.22-.37.44-.57.64s-.41.35-.63.53a8.89,8.89,0,0,0-1,.86,4.75,4.75,0,0,1-.67.53,3.45,3.45,0,0,0-1.63,2,3.59,3.59,0,0,1-.36.76c-.41.58-.81,1.15-1.18,1.76-.13.22-.28.43-.42.64-.25.38-.51.76-.72,1.16a5.56,5.56,0,0,1-.47.72,5.8,5.8,0,0,0-.68,1.1,3.62,3.62,0,0,0-.24,1.34,3.23,3.23,0,0,1-.12.82,5.89,5.89,0,0,1-.35.77,6.07,6.07,0,0,0-.5,1.19,10.84,10.84,0,0,0-.26,1.31c0,.26-.08.52-.13.78a5.74,5.74,0,0,1-.26.8,5.44,5.44,0,0,0-.37,1.26,6.07,6.07,0,0,0,0,1.28,5,5,0,0,1,0,.86,2.89,2.89,0,0,1-.08.47,3.18,3.18,0,0,1,.14.37,2.84,2.84,0,0,0,.21.54c.08.18.15.37.22.56a3.63,3.63,0,0,1,.15.66,2.56,2.56,0,0,0,.11.49,5.14,5.14,0,0,1,.2.59,4.26,4.26,0,0,0,.18.54l.18.4a7,7,0,0,0,.33.67,2,2,0,0,0,.29.37,3.82,3.82,0,0,1,.46.56c.21.34.44.67.66,1a1.2,1.2,0,0,0,.26.25,2.35,2.35,0,0,1,.59.56,3.47,3.47,0,0,1,.4.63,2,2,0,0,0,.25.38c.2.26.29.4.38.54s.15.22.31.44a2.66,2.66,0,0,1,.4.68,2,2,0,0,0,.22.36.74.74,0,0,0,.25.22,2.19,2.19,0,0,1,.66.58,2,2,0,0,1,.4.86.41.41,0,0,0,.11.26l-1.17.91a1.86,1.86,0,0,1-.39-.85.55.55,0,0,0-.12-.27.67.67,0,0,0-.26-.22,2.31,2.31,0,0,1-.66-.58,2.83,2.83,0,0,1-.4-.68,1.17,1.17,0,0,0-.21-.36c-.2-.26-.29-.4-.38-.54s-.15-.22-.32-.43a3.61,3.61,0,0,1-.39-.63,2,2,0,0,0-.25-.39.83.83,0,0,0-.28-.26,2.73,2.73,0,0,1-.6-.58c-.24-.35-.49-.7-.72-1.07a2.49,2.49,0,0,0-.28-.34,3.3,3.3,0,0,1-.52-.66c-.14-.26-.26-.53-.37-.78s-.11-.24-.16-.35c0,.22.11.43.18.64a6.21,6.21,0,0,1,.21.85,4.09,4.09,0,0,1,0,.84,4.28,4.28,0,0,0,0,1.34,10.37,10.37,0,0,0,.28,1.08,7.65,7.65,0,0,1,.24,1,3.29,3.29,0,0,0,.5,1.21,1.8,1.8,0,0,1,.32.76,6.79,6.79,0,0,1,.14,1,7.54,7.54,0,0,0,.15,1.12,9.6,9.6,0,0,0,.27,1.06c.07.24.14.48.24,1a3.54,3.54,0,0,1,.07.9,4.05,4.05,0,0,0,.09,1.21,3.86,3.86,0,0,0,.43,1.19,2.29,2.29,0,0,1,.3.81,3.76,3.76,0,0,1,.08.91,4.54,4.54,0,0,0,.1,1.21,6.25,6.25,0,0,1,.13,1,7.9,7.9,0,0,0,.15,1.14,5.74,5.74,0,0,0,.33,1,3,3,0,0,1,.27.86,2.29,2.29,0,0,1-.28.79,3.56,3.56,0,0,0-.38,1,10.92,10.92,0,0,1-.4,1.77,3.79,3.79,0,0,0-.17,1.08,2,2,0,0,1-.14.82,4.33,4.33,0,0,1-.7.84,8,8,0,0,0-.56.6,3.63,3.63,0,0,1-.78.63,6.82,6.82,0,0,0-.69.51,10.24,10.24,0,0,1-1.47,1.08l-.59.38a4.82,4.82,0,0,1-1,.57,7.75,7.75,0,0,0-.78.35,3.45,3.45,0,0,1-1,.39,4.54,4.54,0,0,1-.75.07,1.2,1.2,0,0,0-.85,0,.87.87,0,0,1-.31,0v1.32h.51a5.88,5.88,0,0,0,.2.67,3.36,3.36,0,0,1,.18.66,13.83,13.83,0,0,0,.47,2.09c.06.23.12.47.17.7a6.17,6.17,0,0,0,.43,1.39c.1.21.19.44.28.66a6.76,6.76,0,0,0,.64,1.33,5.11,5.11,0,0,0,1,1,7,7,0,0,1,.56.53l.19.21a12.74,12.74,0,0,0,1.32,1.33l.49.44a9.31,9.31,0,0,0,1.18,1l.17.1a15,15,0,0,0,1.71,1,4.68,4.68,0,0,0,1.33.35,5,5,0,0,1,.79.16c.25.09.48.2.72.31a5.74,5.74,0,0,0,1.3.49,4.22,4.22,0,0,0,1.38,0,3.78,3.78,0,0,1,.79-.06c.22,0,.44,0,.65.07a8.83,8.83,0,0,0,1.48.1A17.6,17.6,0,0,0,564,594a16.48,16.48,0,0,0,2.07-.48,3.12,3.12,0,0,1,.79-.09,4.08,4.08,0,0,0,1.35-.23c.49-.19.73-.3,1-.41a8.26,8.26,0,0,1,.94-.39,6.05,6.05,0,0,1,.92-.26,7,7,0,0,0,1.09-.3,10.73,10.73,0,0,0,1-.44,6,6,0,0,1,.88-.38,3.94,3.94,0,0,0,1.08-.56,3.15,3.15,0,0,1,.79-.4,6,6,0,0,1,.91-.26,7.32,7.32,0,0,0,1.09-.31c.52-.19.77-.31,1-.43a7.71,7.71,0,0,1,.89-.38c.46-.16.7-.23.94-.3s.52-.14,1-.32l1-.37,1-.36a2.92,2.92,0,0,1,.86-.18,4.5,4.5,0,0,0,1.19-.26,2.8,2.8,0,0,0,1.13-.71,1.61,1.61,0,0,1,.67-.42,1.82,1.82,0,0,1,.82-.14,3.2,3.2,0,0,0,1.27-.21,4,4,0,0,0,1.08-.56,2.88,2.88,0,0,1,.78-.4,2.47,2.47,0,0,1,.84-.17,3.77,3.77,0,0,0,1.21-.25l1-.36c.24-.1.48-.19,1-.36l2-.7c.51-.18.76-.29,1-.4s.46-.2.93-.37l1-.33,1-.35a6.39,6.39,0,0,1,.92-.26,7.7,7.7,0,0,0,1.1-.31c.5-.18.75-.29,1-.39l.94-.37a5.73,5.73,0,0,0,1.05-.48,4,4,0,0,1,.84-.39,5.35,5.35,0,0,0,1.06-.5,5.59,5.59,0,0,1,.85-.39,6.39,6.39,0,0,1,.92-.26,7.7,7.7,0,0,0,1.1-.31c.47-.18.72-.25,1-.32s.52-.16,1-.34a4,4,0,0,0,1.1-.56,3.23,3.23,0,0,1,.8-.4,8.7,8.7,0,0,1,2-.44,2.94,2.94,0,0,1,1.09.17,5.77,5.77,0,0,0,.9.19,5.71,5.71,0,0,0,.93,0,3.58,3.58,0,0,1,1.08.1,2.48,2.48,0,0,1,.74.62,3.84,3.84,0,0,0,.78.72l.44.29a5.19,5.19,0,0,1,1.12.86,6.37,6.37,0,0,0,.72.63,3,3,0,0,1,.76.76,6.55,6.55,0,0,1,.52,1.53l.11.39a5.12,5.12,0,0,1,.09,1.33c0,.22,0,.44,0,.66a5.28,5.28,0,0,1,0,.91,6.54,6.54,0,0,0,0,1.1,4.18,4.18,0,0,0,.2,1.18,2.24,2.24,0,0,1,.15.81l.06,2a2.7,2.7,0,0,1-.09.85,4.14,4.14,0,0,0-.11,1.18l.05,2a2.88,2.88,0,0,0,.29,1.25,1.91,1.91,0,0,1,.18.75,2.7,2.7,0,0,1-.09.85,4.1,4.1,0,0,0-.11,1.17,4.57,4.57,0,0,1,0,.92,6.42,6.42,0,0,0,0,1.11c0,.52,0,.77,0,1s0,.49,0,1a3.49,3.49,0,0,0,.23,1.2,2.15,2.15,0,0,1,.15.81c0,.53,0,.8.07,1.06a8,8,0,0,1,.07,1,3.31,3.31,0,0,1-.07.87,4.11,4.11,0,0,0-.1,1.16c0,.52,0,.78,0,1s0,.49.06,1,0,.7,0,.94a10,10,0,0,0,0,1.08c0,.5,0,.74,0,1s0,.52,0,1,0,.74,0,1,0,.52,0,1,0,.73,0,1a8.71,8.71,0,0,0,0,1.07,3.38,3.38,0,0,0,.24,1.24,2.1,2.1,0,0,1,.18.84,10.36,10.36,0,0,0,.29,1.43l.15.65.12.59a13.21,13.21,0,0,0,.35,1.48c.21.67.43,1.34.7,2a6.64,6.64,0,0,1,.26.79,6.23,6.23,0,0,0,.43,1.23,7.16,7.16,0,0,0,.71,1.1c.16.23.33.45.47.69a4.36,4.36,0,0,1,.32.78,4.35,4.35,0,0,0,.54,1.22,8.67,8.67,0,0,0,.89,1,5.39,5.39,0,0,1,.57.6c.16.19.32.39.47.59a10.6,10.6,0,0,0,.91,1.08,5.33,5.33,0,0,0,1.13.78,3.92,3.92,0,0,1,.68.43,7.31,7.31,0,0,1,.59.52,5.82,5.82,0,0,0,1.07.89,6.77,6.77,0,0,0,1.38.58,6.4,6.4,0,0,1,.66.23,5.94,5.94,0,0,1,.67.33,5.09,5.09,0,0,0,1.37.58,4,4,0,0,0,1.48-.08,4.07,4.07,0,0,1,.76-.1,1.73,1.73,0,0,1,.77.16,2.9,2.9,0,0,0,1.29.28,3,3,0,0,0,1.29-.27,1.57,1.57,0,0,1,.77-.17,1.42,1.42,0,0,1,.74.18,2.57,2.57,0,0,0,1.32.32,5.7,5.7,0,0,0,1.14-.1,5.27,5.27,0,0,1,1.83,0,5.7,5.7,0,0,0,1.14.1,3,3,0,0,0,1.29-.27,1.83,1.83,0,0,1,1.54,0,3,3,0,0,0,1.29.27,2.68,2.68,0,0,0,1.32-.32,1.41,1.41,0,0,1,.74-.19c.54,0,.81,0,1.08,0s.49,0,1,0a1.41,1.41,0,0,1,.74.19,2.68,2.68,0,0,0,1.32.32c.54,0,.81,0,1.07,0s.5,0,1,0a4.24,4.24,0,0,0,1.19-.15,3,3,0,0,1,.87-.11,4.65,4.65,0,0,1,.93.08,6.68,6.68,0,0,0,1.13.09,6.94,6.94,0,0,0,1.13-.08,6,6,0,0,1,.94-.07,6.82,6.82,0,0,0,1.14-.09,4.61,4.61,0,0,1,.92-.08,1.35,1.35,0,0,1,.73.19,2.6,2.6,0,0,0,1.34.34l1.05,0h1a3.22,3.22,0,0,0,1.26-.23,1.91,1.91,0,0,1,.81-.15,7.08,7.08,0,0,0,1.12-.07,6.31,6.31,0,0,1,.94-.06h2.07c.5,0,.75,0,1,0l1.07,0a1.41,1.41,0,0,1,.74.19,2.72,2.72,0,0,0,1.33.32,5,5,0,0,0,1.15-.11,4.45,4.45,0,0,1,.9-.08,3.07,3.07,0,0,0,1.27-.25,1.9,1.9,0,0,1,.8-.15,1.6,1.6,0,0,1,.77.17,2.81,2.81,0,0,0,1.3.28,3.57,3.57,0,0,0,1.24-.2,2.09,2.09,0,0,1,.82-.14c.5,0,.74,0,1,0s.54,0,1.07,0a6.61,6.61,0,0,0,1.15-.1,3.83,3.83,0,0,1,.92-.09,2.15,2.15,0,0,1,.83.14,3.52,3.52,0,0,0,1.24.2,4.33,4.33,0,0,0,1.19-.14,3.57,3.57,0,0,1,1.76,0,4.24,4.24,0,0,0,1.19.15h2.07c.54,0,.8,0,1.07,0s.5,0,1,0h1c.25,0,.51,0,1,0l1.07,0c.25,0,.5,0,1,0a5.69,5.69,0,0,0,1.16-.11,3.8,3.8,0,0,1,.91-.09,1.43,1.43,0,0,1,.75.19,2.61,2.61,0,0,0,1.34.33,4.86,4.86,0,0,0,1.18-.13,3.15,3.15,0,0,1,.9-.11h.54a3.73,3.73,0,0,0,1.68-.27l.45-.15v-1a10.69,10.69,0,0,0,0-1.36,5.28,5.28,0,0,0-.35-1.29,6.23,6.23,0,0,1-.24-.73,3.94,3.94,0,0,1,0-.79,3.91,3.91,0,0,0-.16-1.33l-.18-.57a10.54,10.54,0,0,0-.54-1.44,3.66,3.66,0,0,0-.87-1.06,3.41,3.41,0,0,1-.53-.57l-.12-.2a16.08,16.08,0,0,0-1.07-1.51,3.58,3.58,0,0,1-.38-.68,3.85,3.85,0,0,0-.75-1.15,4.82,4.82,0,0,0-1.11-.75,5.16,5.16,0,0,1-.68-.42,9,9,0,0,0-1.23-.75l-.57-.32a15,15,0,0,0-1.55-.78l-.32-.14a3.21,3.21,0,0,1-.63-.46,3.47,3.47,0,0,0-1.15-.75c-.55-.19-1.14-.33-1.73-.47l-.32-.07a8.34,8.34,0,0,0-1.33-.17c-.26,0-.52,0-.77-.07a6.16,6.16,0,0,0-1.29,0,5.49,5.49,0,0,1-.81,0,14.68,14.68,0,0,0-1.48,0l-.59,0a3.35,3.35,0,0,1-.79-.1,4,4,0,0,0-1.32-.11,6.8,6.8,0,0,0-1.21.25,4.38,4.38,0,0,1-1,.21l-1.07.13-1.15.14c-.56.07-.85.12-1.13.17s-.53.1-1.08.17a7,7,0,0,0-1.17.22,8.11,8.11,0,0,1-1,.18c-.54.07-.81.09-1.08.11s-.58,0-1.16.11a3.61,3.61,0,0,0-1.07.32c-.09,0-.21.09-.19.1l-.07-.06a3.22,3.22,0,0,0,.83-.59l.68-.65c.18-.17.36-.34.7-.69l.68-.65c.18-.16.37-.33.71-.67a1.6,1.6,0,0,1,.62-.41,3,3,0,0,0,1-.69,2.72,2.72,0,0,1,.54-.39,1.27,1.27,0,0,0,.66-1.84,1.2,1.2,0,0,0-1.8-.57,1.77,1.77,0,0,1-.68.19c-.54,0-.81,0-1.08,0a6.51,6.51,0,0,1-.93.05,2.34,2.34,0,0,1-.81-.12,3.29,3.29,0,0,0-1.19-.19,8.39,8.39,0,0,0-1.08.06,6.61,6.61,0,0,1-.93,0c-.47,0-.71,0-1,0s-.53-.05-1.07-.05a2.84,2.84,0,0,0-1.26.27,1.64,1.64,0,0,1-.75.16,1.75,1.75,0,0,1-.77-.15,3.22,3.22,0,0,0-1.24-.23c-.52,0-.78,0-1,0l-1,0a4.07,4.07,0,0,0-1.17.15,2.84,2.84,0,0,1-.84.11,1.55,1.55,0,0,1-.75-.16,2.83,2.83,0,0,0-1.27-.28,3.16,3.16,0,0,0-1.23.23,1.92,1.92,0,0,1-.77.14,2.43,2.43,0,0,1-.83-.12,3.83,3.83,0,0,0-1.2-.17,3,3,0,0,0-1.26.25,1.66,1.66,0,0,1-.76.16,3.51,3.51,0,0,1-.88-.09,5.49,5.49,0,0,0-1.15-.11,1.42,1.42,0,0,0-.29,0,2.26,2.26,0,0,0,.35-.28l1.47-1.47a4.14,4.14,0,0,0,.75-1,2.92,2.92,0,0,1,.54-.7,2.24,2.24,0,0,1,.78-.42,1.73,1.73,0,0,0,1.1-.83,1.3,1.3,0,0,0,0-1c-.5-1.17-1.56-.83-2.07-.67a2.75,2.75,0,0,1-.83.18,2.84,2.84,0,0,0-1.31.29,1.69,1.69,0,0,1-.79.17,2.72,2.72,0,0,1-.88-.12,3.93,3.93,0,0,0-1.22-.17c-.51,0-.76,0-1,0s-.55,0-1.09,0a8.61,8.61,0,0,0-1.13.07,6.69,6.69,0,0,1-1,.06,3.25,3.25,0,0,1-.91-.1,5,5,0,0,0-1.2-.13h-2.11a3.64,3.64,0,0,0-1.25.2,2.54,2.54,0,0,1-.86.13,3.23,3.23,0,0,1-.91-.11,4.89,4.89,0,0,0-1.21-.14l-.73,0a6.71,6.71,0,0,1-1.19,0c-.28,0-.56-.05-.85-.07a5.17,5.17,0,0,1-1.09-.13,11.12,11.12,0,0,1-1.45-.6l-.34-.16a2.22,2.22,0,0,1-.63-.58,4.19,4.19,0,0,0-.81-.75,6.59,6.59,0,0,0-.83-.44,3.79,3.79,0,0,1-.85-.48,8.33,8.33,0,0,1-.89-1l-.38-.46a5.16,5.16,0,0,1-.58-.92c-.13-.23-.26-.47-.4-.69l-.42-.61a5.38,5.38,0,0,1-.62-1,7.64,7.64,0,0,1-.37-1.17c0-.21-.1-.43-.17-.64a3.92,3.92,0,0,0-.51-1,2.07,2.07,0,0,1-.38-.76,14.11,14.11,0,0,1-.13-1.94,2,2,0,0,1,.14-.79,3.1,3.1,0,0,0,.22-1.22v-2a4.65,4.65,0,0,0-.12-1.14,3.88,3.88,0,0,1-.09-.87,3.38,3.38,0,0,1,.1-.87,5.22,5.22,0,0,0,.12-1.14c0-.49,0-.74,0-1s0-.52,0-1a2.74,2.74,0,0,0-.29-1.29,1.46,1.46,0,0,1-.17-.73v-2a1.73,1.73,0,0,1,.16-.77,3.14,3.14,0,0,0,.23-1.24c0-.51,0-.77,0-1s0-.49,0-1,0-.8,0-1.06,0-.48,0-1v-2a8.39,8.39,0,0,0-.06-1.08,9.11,9.11,0,0,1,0-1c0-.69,0-1.38,0-2.07,0-.26,0-.51,0-.77,0-.43,0-.87,0-1.3a5.11,5.11,0,0,0-.3-1.21,4.73,4.73,0,0,1-.22-.82c0-.27-.06-.55-.08-.84a10.1,10.1,0,0,0-.13-1.22c-.1-.49-.23-1-.36-1.44l-.15-.57a4.17,4.17,0,0,1-.08-.83,4.65,4.65,0,0,0-.17-1.26,8.63,8.63,0,0,0-.51-1.17,7,7,0,0,1-.34-.74,3.8,3.8,0,0,1-.21-.82,5,5,0,0,0-.35-1.23,3.42,3.42,0,0,0-.89-1,2.81,2.81,0,0,1-.54-.57,4,4,0,0,1-.29-.77,4.16,4.16,0,0,0-.52-1.2,12.16,12.16,0,0,0-.91-1.13c-.15-.16-.3-.33-.44-.5a6.5,6.5,0,0,1-.47-.66,5.61,5.61,0,0,0-.8-1,5.33,5.33,0,0,0-1.09-.78,5.54,5.54,0,0,1-.67-.44,7.31,7.31,0,0,0-1.17-.73c-.21-.12-.43-.23-.64-.36a13.79,13.79,0,0,0-1.52-.81l-.33-.17a10.55,10.55,0,0,0-1.36-.51l-.6-.21a4.94,4.94,0,0,1-.7-.33,5.28,5.28,0,0,0-1.23-.51c-.24-.06-.47-.13-.71-.21a8.46,8.46,0,0,0-1.34-.33,4,4,0,0,0-1.29.06,3.49,3.49,0,0,1-.82.08,7.42,7.42,0,0,1-.79-.1,7.5,7.5,0,0,0-1.3-.14,8.11,8.11,0,0,1-.83-.06,5.58,5.58,0,0,0-1.44,0c-.7.19-1,.28-1.33.41l-.81.27a2.68,2.68,0,0,0-1.22.77,1.48,1.48,0,0,1-.7.44,1.78,1.78,0,0,1-.85.09,3.08,3.08,0,0,0-1.38.15,4.34,4.34,0,0,0-1.15.56,2.63,2.63,0,0,1-.84.4,7.49,7.49,0,0,1-1,.27c-.28.06-.57.13-1.13.3a2.55,2.55,0,0,1-.91.16,4.27,4.27,0,0,0-1.29.21,3.24,3.24,0,0,0-1.2.67,2,2,0,0,1-.77.42,4.54,4.54,0,0,1-1.12.25c-.22,0-.48,0-.86.12-.45-.08-.66-.3-.85-.83a2.37,2.37,0,0,1,0-1.67c.28-.6.66-.91,1.14-.91l.19,0a7.81,7.81,0,0,0,1.34-.52l.65-.29a2.09,2.09,0,0,1,.82-.21,3.55,3.55,0,0,0,1.22-.31c.5-.22.74-.35,1-.47s.44-.23.89-.43a3.21,3.21,0,0,0,1.07-.73,2,2,0,0,1,.67-.46,4.14,4.14,0,0,1,.89-.3,6.24,6.24,0,0,0,1.09-.38,5.7,5.7,0,0,0,1-.55,5.32,5.32,0,0,1,.82-.45,7.49,7.49,0,0,0,1-.5c.22-.12.43-.24.88-.44a1.53,1.53,0,0,1,.81-.15,3.53,3.53,0,0,0,1.14-.13,6.35,6.35,0,0,0,1-.13,5,5,0,0,1,.9-.1,6.28,6.28,0,0,1,1.06.14c.33.06.66.11,1,.14l.77,0c.43,0,.86,0,1.29.1l.78.08c.43,0,.85.07,1.27.15a10,10,0,0,1,1.11.27c.29.09.59.17.88.24.69.15,1.34.3,2,.49a6.18,6.18,0,0,1,1,.42c.28.13.56.26.86.37a6.13,6.13,0,0,0,1.13.23,3.59,3.59,0,0,1,.89.18c.64.28,1.26.57,1.85.89a6.27,6.27,0,0,1,.89.65c.25.2.49.39.75.57a9.17,9.17,0,0,0,.87.48,5.09,5.09,0,0,1,.9.53l.49.38a12.07,12.07,0,0,1,1.1.91,3.61,3.61,0,0,1,.55.8,5.68,5.68,0,0,0,.59.91c.19.22.38.42.58.62a8.28,8.28,0,0,1,.78.89c.39.55.77,1.11,1.12,1.69s.65,1.19,1,1.8l.27.55c.22.42.44.85.62,1.29a8.63,8.63,0,0,0,.46.91,5.84,5.84,0,0,1,.46.94,2.69,2.69,0,0,1,.06.88,4.34,4.34,0,0,0,.1,1.22c.09.31.2.62.31.92a7.71,7.71,0,0,1,.33,1,9.1,9.1,0,0,0,.32,1,5.45,5.45,0,0,1,.3,1,5.6,5.6,0,0,1,.06,1,7.54,7.54,0,0,0,.06,1.06c0,.3.09.61.15.92s.13.74.17,1.12.06.56.1.84.1.81.12,1.23a4.38,4.38,0,0,1-.06,1,7.08,7.08,0,0,0-.08,1.11,3.86,3.86,0,0,0,.2,1.19,2.22,2.22,0,0,1,.13.81,1.89,1.89,0,0,1-.14.77,3.2,3.2,0,0,0-.22,1.23c0,.51,0,.77,0,1s0,.5,0,1,0,.77,0,1,0,.5,0,1a6.78,6.78,0,0,0,.07,1.1,5.8,5.8,0,0,1,.07.92c0,.52,0,.79,0,1s0,.48,0,1a3.67,3.67,0,0,1-.09.89,5.51,5.51,0,0,0-.1,1.13,8.39,8.39,0,0,0,.06,1.08,6.37,6.37,0,0,1,.06.93c0,.49,0,.74,0,1s0,.51,0,1a5.5,5.5,0,0,1-.07.9,6.5,6.5,0,0,0-.09,1.11c0,.52,0,.79,0,1.05s0,.48,0,1a2.83,2.83,0,0,0,.26,1.26,1.73,1.73,0,0,1,.16.77,9.11,9.11,0,0,1,0,.95c0,.27,0,.54,0,1.07a2.12,2.12,0,0,1-.31.84,1.63,1.63,0,0,0-.27,1.37,1.12,1.12,0,0,0,.72.65c1.18.43,1.67-.47,1.94-1a2.57,2.57,0,0,1,.49-.71,5.29,5.29,0,0,0,.8-.89,4.85,4.85,0,0,1,.64-.7,8.39,8.39,0,0,1,.78-.64,10.1,10.1,0,0,0,.87-.72,3.11,3.11,0,0,1,.76-.54,4.43,4.43,0,0,0,1-.72,3.6,3.6,0,0,0,.81-1,2,2,0,0,1,.52-.69c.39-.35.59-.51.79-.68s.43-.35.83-.72l.8-.7.82-.72a4.48,4.48,0,0,0,.8-.91,3.84,3.84,0,0,1,.63-.7,7.92,7.92,0,0,1,.77-.62,7.23,7.23,0,0,0,.9-.72,2.25,2.25,0,0,1,.74-.47,3.34,3.34,0,0,0,1.09-.71,5.71,5.71,0,0,0,.81-.85,6.55,6.55,0,0,1,.68-.71,5.11,5.11,0,0,0,.82-.92,3.13,3.13,0,0,1,.62-.71,2.67,2.67,0,0,1,.75-.51,4.25,4.25,0,0,0,1.05-.72,1.94,1.94,0,0,0,.38-.45,2.45,2.45,0,0,0,0,.48c0,.52,0,.78,0,1s0,.54,0,1.08a3.17,3.17,0,0,0,.24,1.29,2,2,0,0,1,.15.83,4.89,4.89,0,0,1-.08,1,5.18,5.18,0,0,0-.11,1.18,2,2,0,0,1-.26.82,1.58,1.58,0,0,0-.21,1.31,1.21,1.21,0,0,0,.73.68,1.31,1.31,0,0,0,1,0,1.66,1.66,0,0,0,.79-1.08,2.52,2.52,0,0,1,.38-.75,6.15,6.15,0,0,1,.67-.68,7.25,7.25,0,0,0,.78-.79c.32-.37.5-.54.68-.72a10.59,10.59,0,0,0,.74-.78,3.4,3.4,0,0,0,.65-1.11,2,2,0,0,1,.41-.7,1.87,1.87,0,0,1,.64-.5,3.09,3.09,0,0,0,1-.8,2.83,2.83,0,0,0,.63-1.2,1.24,1.24,0,0,1,.35-.68,4.23,4.23,0,0,1,.66-.65,5.71,5.71,0,0,0,.82-.8c.36-.41.52-.62.68-.83s.31-.4.64-.78a3.13,3.13,0,0,1,.65-.59,4.72,4.72,0,0,0,.88-.81,7.21,7.21,0,0,1,.67-.68,8.74,8.74,0,0,0,.78-.8,5.19,5.19,0,0,0,.68-1,3.66,3.66,0,0,1,.52-.74,7.64,7.64,0,0,0,.68-.91,5.74,5.74,0,0,1,.56-.76,5.42,5.42,0,0,0,.68-.92,5.45,5.45,0,0,1,.57-.75,1.66,1.66,0,0,1,.64-.49,2.92,2.92,0,0,0,1-.74h0a5.22,5.22,0,0,0,.13,1.23,4,4,0,0,1,.1,1,4.14,4.14,0,0,1-.1,1,6,6,0,0,0-.11,1.21,5.34,5.34,0,0,1-.08,1,7.49,7.49,0,0,0-.09,1.2,3.21,3.21,0,0,0,.27,1.35,1.9,1.9,0,0,1,.17.85,2,2,0,0,1-.28.84,1.58,1.58,0,0,0-.22,1.28,1.29,1.29,0,0,0,.75.71,1.13,1.13,0,0,0,1,0,1.49,1.49,0,0,0,.59-1.24,2.72,2.72,0,0,1,.21-.85l1-1.79a8.21,8.21,0,0,1,.5-.8,7.34,7.34,0,0,0,.58-.93c.23-.42.37-.61.5-.81a7.65,7.65,0,0,0,.58-.94,5.63,5.63,0,0,0,.45-1,5.56,5.56,0,0,1,.36-.84,7,7,0,0,0,.47-1,5.56,5.56,0,0,1,.38-.85,3.78,3.78,0,0,1,.5-.75,5.35,5.35,0,0,0,.64-1,4.2,4.2,0,0,0,.43-1.11,2.93,2.93,0,0,1,.31-.81l.49-.92c.12-.23.23-.45.48-.9a5.63,5.63,0,0,1,.5-.79,7.42,7.42,0,0,0,.59-.94,4.81,4.81,0,0,1,.51-.76,5.11,5.11,0,0,0,.65-.95,4.92,4.92,0,0,1,.51-.8,5.78,5.78,0,0,0,.6-.94c.26-.47.37-.71.49-1s.21-.45.44-.89a2.71,2.71,0,0,0,.36-1.3,1.37,1.37,0,0,1,.19-.73,1.58,1.58,0,0,1,.51-.6,2.91,2.91,0,0,0,.85-1c.24-.44.37-.66.5-.88l.52-.91a3.44,3.44,0,0,0,.41-1.19,2,2,0,0,1,.27-.79,2.63,2.63,0,0,1,.51-.7,3.81,3.81,0,0,0,.73-1,3.14,3.14,0,0,0,.39-1.25,1.76,1.76,0,0,1,.24-.77,2,2,0,0,1,.6-.53,3.6,3.6,0,0,0,.91-.84,3.88,3.88,0,0,0,.45-1.09,2.51,2.51,0,0,1,.32-.77c.41-.5.86-1,1.33-1.46l.34-.36a14.71,14.71,0,0,1,1-1c.5-.43,1-.84,1.55-1.22a10.73,10.73,0,0,1,1.09-.64l.62-.35a13.68,13.68,0,0,1,1.28-.61l.5-.23a12.87,12.87,0,0,1,1.5-.57l.33-.12a8.1,8.1,0,0,1,1.2-.3l.69-.15.63-.17a10.22,10.22,0,0,1,1.27-.29,7.22,7.22,0,0,0,1-.24,3.68,3.68,0,0,1,1-.22,1.5,1.5,0,0,1,.27.08,2,2,0,0,0,.74.18,2,2,0,0,1,.64.09,3.1,3.1,0,0,0,1,.15,3.42,3.42,0,0,0,1-.14,2.47,2.47,0,0,1,.65-.08,5.86,5.86,0,0,0,1.36-.21,6.63,6.63,0,0,1,.75-.15,17.59,17.59,0,0,0,2.14-.14,6.3,6.3,0,0,0,1.3-.52c.23-.11.45-.22.68-.31a16.09,16.09,0,0,0,2-.84c.23-.12.48-.21.73-.31a5.24,5.24,0,0,0,1.23-.57l.52-.35a10.65,10.65,0,0,0,1.25-.9,5.39,5.39,0,0,0,.86-1.07,4.4,4.4,0,0,1,.47-.64l.4-.44a11.85,11.85,0,0,0,1-1.19A7.69,7.69,0,0,0,744,525c.1-.23.2-.46.31-.68s.21-.38.32-.56a9.19,9.19,0,0,0,.67-1.33,18.17,18.17,0,0,0,.65-2A4.14,4.14,0,0,0,746,519a4.29,4.29,0,0,1,0-.8,4.55,4.55,0,0,1,.19-.77,4.69,4.69,0,0,0,.26-1.35v-.23Zm-161.57,6.62a3.4,3.4,0,0,0-.44.11,4.51,4.51,0,0,1-1,.25,2.64,2.64,0,0,1-1.54-.18,8,8,0,0,0-.93.24l-.76.2a4.67,4.67,0,0,0-.81.31c-.28.12-.57.23-.85.33a7.19,7.19,0,0,1-1,.24,5.56,5.56,0,0,0-.73.18c-.41.18-.81.39-1.22.6l-1,.52a7.6,7.6,0,0,0-.94.49c-.31.19-.59.42-.88.64l-.55.43c-.24.18-.48.33-.73.49a6.73,6.73,0,0,0-.75.53,2.68,2.68,0,0,0-.32.47,5.27,5.27,0,0,1-.73,1,7,7,0,0,1-.83.7,4.1,4.1,0,0,0-.54.45c-.24.3-.45.62-.67.93l-.36.53a5.63,5.63,0,0,0-.42.76q-.2.42-.42.81c-.22.37-.41.76-.6,1.15l-.21.42a4.64,4.64,0,0,0-.23.72,10,10,0,0,1-.3,1,9.44,9.44,0,0,1-.45.9,4.83,4.83,0,0,0-.33.69,5.37,5.37,0,0,0-.11.74,7.25,7.25,0,0,1-.15,1,3.93,3.93,0,0,1-.64,1.33,2.92,2.92,0,0,0-.22.36c0,.35-.07.76-.09,1.17l0,.56a2.53,2.53,0,0,0,.1.57,5.07,5.07,0,0,1,.18,1.21v.55c0,.4,0,.8,0,1.21a4.83,4.83,0,0,0,.18.7,7,7,0,0,1,.27,1c.05.32.08.65.1,1a5,5,0,0,0,.09.78,5.83,5.83,0,0,1,.17,1.11,3.29,3.29,0,0,0,.09.67c.19.55.43,1.1.67,1.65a3.74,3.74,0,0,0,.42.69c.18.27.36.55.51.83a1.52,1.52,0,0,1-1.33,2.23,1.51,1.51,0,0,1-1.34-.8c-.11-.2-.24-.39-.36-.57A8.09,8.09,0,0,1,562,555c-.27-.62-.53-1.24-.75-1.87a5.32,5.32,0,0,1-.25-1.41,3.81,3.81,0,0,0-.08-.59,7.56,7.56,0,0,1-.18-1.35c0-.21,0-.43-.07-.64a3.35,3.35,0,0,0-.17-.62,6.54,6.54,0,0,1-.3-1.33c-.05-.5-.05-1-.05-1.49v-.51a4.4,4.4,0,0,0-.11-.55,4.91,4.91,0,0,1-.17-1.47l0-.52a14.92,14.92,0,0,1,.12-1.5,3.72,3.72,0,0,1,.69-1.55,3.57,3.57,0,0,0,.22-.35,5.5,5.5,0,0,0,.08-.62,6.52,6.52,0,0,1,.23-1.33,7,7,0,0,1,.57-1.24,5.23,5.23,0,0,0,.29-.58,4.4,4.4,0,0,0,.18-.62,7.2,7.2,0,0,1,.45-1.28l.19-.4c.23-.47.46-.93.73-1.38.11-.19.21-.4.31-.59a7.14,7.14,0,0,1,.66-1.18l.32-.47a14,14,0,0,1,.85-1.17,5.88,5.88,0,0,1,1.05-.94,3.77,3.77,0,0,0,.48-.4,2.48,2.48,0,0,0,.3-.45,4.73,4.73,0,0,1,.93-1.19,8.5,8.5,0,0,1,1.1-.79l.56-.38.48-.37a13,13,0,0,1,1.15-.84,12.28,12.28,0,0,1,1.25-.65l.91-.47c.48-.25,1-.5,1.46-.71a6.49,6.49,0,0,1,1.33-.36,4.94,4.94,0,0,0,.64-.15,6.44,6.44,0,0,0,.61-.24,8.62,8.62,0,0,1,1.29-.46l.62-.17a10.91,10.91,0,0,1,1.34-.33,2.84,2.84,0,0,1,1.55.18,2.18,2.18,0,0,0,.39-.1,4.26,4.26,0,0,1,.95-.25,1.52,1.52,0,0,1,.5,3ZM696.4,538.38a10.24,10.24,0,0,1-.59.88c-.29.4-.45.59-.61.79s-.27.33-.52.68a.82.82,0,0,0-.16.34,3.62,3.62,0,0,1-.64,1.37,4.62,4.62,0,0,1-.92.95,1.77,1.77,0,0,0-.38.39,8.22,8.22,0,0,1-.68.83,7.54,7.54,0,0,0-.48.59,1.07,1.07,0,0,0-.22.42,3.93,3.93,0,0,1-.64,1.23,5.93,5.93,0,0,1-.73.86,5.64,5.64,0,0,0-.46.54,1.31,1.31,0,0,0-.21.43,4.41,4.41,0,0,1-.64,1.23,3.52,3.52,0,0,1-1.17,1,.59.59,0,0,0-.25.21,4.39,4.39,0,0,0-.38.6,6.54,6.54,0,0,1-.6,1c-.24.33-.35.5-.46.68s-.28.43-.58.84a2.48,2.48,0,0,0-.3.52,4.73,4.73,0,0,1-.62,1.08c-.26.35-.38.52-.5.7s-.27.4-.56.8a3.37,3.37,0,0,1-1.24,1,.5.5,0,0,0-.22.39,2.06,2.06,0,0,1-2.19,2.07,2.31,2.31,0,0,1-2.24-1.83,3.31,3.31,0,0,0-.16-.4,3.37,3.37,0,0,1-.53-1.53c0-.16,0-.16-.07-.25a1.73,1.73,0,0,0-.36-.44,4.8,4.8,0,0,1-.81-1,4.74,4.74,0,0,0-.42-.59,7.13,7.13,0,0,1-.64-.9c-.26-.4-.38-.61-.5-.82l-.29-.47a5,5,0,0,1-.83.76,1.86,1.86,0,0,0-.44.42,2.31,2.31,0,0,0-.36.56,5.69,5.69,0,0,1-.71,1.1c-.29.35-.43.54-.57.72s-.31.42-.64.83l-1.21,1.52a5.32,5.32,0,0,1-.89.9,3.37,3.37,0,0,0-.48.5,7.17,7.17,0,0,0-.5.68c-.16.22-.31.46-.66.88a1.2,1.2,0,0,0-.23.43,4.08,4.08,0,0,1-.73,1.32c-.34.42-.52.62-.71.82a6.85,6.85,0,0,0-.57.65,4.41,4.41,0,0,1-1,.95,1.83,1.83,0,0,0-.42.39,3.56,3.56,0,0,0-.39.59,6.43,6.43,0,0,1-.7,1l-.64.78-.6.72a4.66,4.66,0,0,1-1,1,1.83,1.83,0,0,0-.42.39l-2.35-1.91a4.66,4.66,0,0,1,1-1,1.83,1.83,0,0,0,.42-.39c.31-.39.48-.58.64-.78l.6-.71a3.18,3.18,0,0,0,.39-.6,6.94,6.94,0,0,1,.7-1,4.77,4.77,0,0,1,1-1,1.83,1.83,0,0,0,.42-.39c.34-.42.52-.62.71-.82a6.85,6.85,0,0,0,.57-.65,1.17,1.17,0,0,0,.23-.42,3.8,3.8,0,0,1,.73-1.32,8.3,8.3,0,0,0,.49-.67,10,10,0,0,1,.66-.89,5.92,5.92,0,0,1,.89-.91,3.31,3.31,0,0,0,.49-.5l1.21-1.52c.29-.36.43-.54.56-.73l.64-.82a2.53,2.53,0,0,0,.37-.56,5.24,5.24,0,0,1,.71-1.09,4.59,4.59,0,0,1,1-1,1.68,1.68,0,0,0,.44-.42,1.33,1.33,0,0,0,.14-.38,2.31,2.31,0,0,1,2.29-1.93h0c.72,0,2,.29,2.13,2.23a2.27,2.27,0,0,0,0,.34l.93,1.52a5.16,5.16,0,0,0,.43.6,8,8,0,0,1,.64.89,1.92,1.92,0,0,0,.35.44,4.62,4.62,0,0,1,.81,1,3.45,3.45,0,0,1,.48,1.2,3.31,3.31,0,0,1,1-.72,6,6,0,0,0,.7-.86c.13-.2.27-.4.56-.79a2.48,2.48,0,0,0,.3-.52,4.73,4.73,0,0,1,.62-1.08c.24-.33.35-.5.46-.67a10.24,10.24,0,0,1,.58-.85,6.12,6.12,0,0,0,.38-.6,6.51,6.51,0,0,1,.6-1,3.47,3.47,0,0,1,1.17-1,.51.51,0,0,0,.24-.21,1.07,1.07,0,0,0,.22-.42,4.07,4.07,0,0,1,.64-1.24,8.45,8.45,0,0,1,.73-.86,3.79,3.79,0,0,0,.46-.54,1.07,1.07,0,0,0,.22-.42,3.93,3.93,0,0,1,.64-1.23,8.9,8.9,0,0,1,.68-.84,5,5,0,0,0,.48-.59,5.22,5.22,0,0,1,.92-1,1.77,1.77,0,0,0,.38-.39.7.7,0,0,0,.15-.34,3.67,3.67,0,0,1,.65-1.37c.29-.4.45-.59.61-.79s.27-.33.52-.68.34-.49.45-.66.28-.45.59-.88l2.44,1.8C696.61,538,696.51,538.21,696.4,538.38Zm28.2-25.47a8.6,8.6,0,0,1-.84,2.14,9.16,9.16,0,0,1-1.37,1.85,6.9,6.9,0,0,1-1.58,1.09l-.58.34a7,7,0,0,1-1.81.84,4.78,4.78,0,0,1-1.75.06,6.25,6.25,0,0,0-1.06,0,6.88,6.88,0,0,1-.83.06,3.8,3.8,0,0,1-.93-.11,6.26,6.26,0,0,1-1.66-.81l-.75-.45a6.1,6.1,0,0,1-1.53-1,9.12,9.12,0,0,1-1.34-1.86,8.7,8.7,0,0,1-.79-2.13,7.66,7.66,0,0,1,0-4.48l.09-.35a6.5,6.5,0,0,1,.65-1.81,4.54,4.54,0,0,1,1.21-1.28c.14-.11.27-.21.39-.32a7.78,7.78,0,0,1,1.76-1.32l.38-.24a5.62,5.62,0,0,1,1.61-.79,9,9,0,0,1,4.51-.11,8.52,8.52,0,0,1,2.1.9,4.9,4.9,0,0,1,1.3,1.19,3.12,3.12,0,0,0,.71.68,4.25,4.25,0,0,1,1.25,1.28,8.71,8.71,0,0,1,.81,2.14,4,4,0,0,1,0,1.76,4.53,4.53,0,0,0-.06.5,2.87,2.87,0,0,0,.07.5A3.88,3.88,0,0,1,724.6,512.91Z" transform="translate(-534.05 -369.25)"/></svg>